<svg width="148" height="128" viewBox="0 0 148 128" fill="none" xmlns="http://www.w3.org/2000/svg">
<path d="M114.414 110.337H36.8772C31.2416 110.337 26.665 105.77 26.665 100.147V45.9314C26.665 40.3079 31.2416 35.7412 36.8772 35.7412H114.414C120.049 35.7412 124.626 40.3079 124.626 45.9314V100.147C124.626 105.77 120.049 110.337 114.414 110.337ZM36.8772 39.1568C33.1138 39.1568 30.0691 42.195 30.0691 45.9503V100.166C30.0691 103.921 33.1138 106.959 36.8772 106.959H114.414C118.177 106.959 121.222 103.921 121.222 100.166V45.9314C121.222 42.1761 118.177 39.1379 114.414 39.1379H36.8772V39.1568Z" fill="black"/>
<path d="M76.0803 75.0112C72.0711 75.0112 69.2722 73.8978 69.0831 73.8223L27.7618 57.7445C26.8919 57.4048 26.457 56.4235 26.7974 55.5366C27.1378 54.6497 28.1401 54.2345 29.01 54.5742L70.3691 70.6709C70.4447 70.6898 75.7777 72.7655 81.8293 70.652C88.4861 68.312 121.94 54.0081 122.281 53.876C123.132 53.4985 124.134 53.8948 124.512 54.7629C124.89 55.6309 124.474 56.6311 123.623 56.9896C122.243 57.5746 89.7153 71.4823 82.964 73.86C80.4677 74.7281 78.1227 75.0112 76.0803 75.0112Z" fill="black"/>
<path d="M85.8575 85.6543H65.2252C64.2796 85.6543 63.5232 84.8995 63.5232 83.9559V70.5011C63.5232 69.5576 64.2796 68.8027 65.2252 68.8027C66.1708 68.8027 66.9272 69.5576 66.9272 70.5011V82.2576H84.1554V70.5011C84.1554 69.5576 84.9119 68.8027 85.8575 68.8027C86.803 68.8027 87.5595 69.5576 87.5595 70.5011V83.9559C87.5595 84.8995 86.7841 85.6543 85.8575 85.6543Z" fill="black"/>
<path d="M97.1665 39.1379C97.072 39.1379 96.9774 39.1379 96.864 39.119C95.9373 38.9681 95.3132 38.0812 95.4834 37.1565C95.5023 37.0244 95.5023 36.9112 95.5023 36.7791V35.7034C95.5023 30.8914 91.5877 26.9663 86.7653 26.9663H65.509C60.6866 26.9663 56.753 30.8914 56.753 35.7034V36.7791C56.753 36.9112 56.753 37.0433 56.772 37.1754C56.9233 38.1 56.2992 38.9681 55.3725 39.119C54.4459 39.27 53.5759 38.6473 53.4247 37.7226C53.3679 37.4018 53.3679 37.0999 53.3679 36.7791V35.7034C53.3679 29.0232 58.8144 23.5696 65.5279 23.5696H86.7842C93.4788 23.5696 98.9253 29.0043 98.9253 35.7034V36.7791C98.9253 37.0999 98.9253 37.4207 98.8686 37.7415C98.6984 38.5529 97.9797 39.1379 97.1665 39.1379Z" fill="black"/>
</svg>
