<svg width="152" height="137" viewBox="0 0 152 137" fill="none" xmlns="http://www.w3.org/2000/svg">
<path d="M99.7209 124.338H51.56C50.6608 124.338 49.9414 123.618 49.9414 122.719V104.103C49.9414 103.204 50.6608 102.485 51.56 102.485H99.7209C100.62 102.485 101.339 103.204 101.339 104.103V122.719C101.339 123.618 100.62 124.338 99.7209 124.338ZM53.1785 121.1H98.0843V105.722H53.1785V121.1Z" fill="black"/>
<path d="M61.6129 105.722C61.3252 105.722 61.0554 105.65 60.7857 105.488C60.0124 105.039 59.7606 104.049 60.2102 103.276L64.85 95.3802V87.2145C61.6489 84.1029 45.4994 67.3219 44.2405 44.9472C42.9277 21.2416 42.9097 18.5976 42.9097 18.4897C42.9097 17.5904 43.629 16.8709 44.5282 16.8709H75.6224C76.5216 16.8709 77.241 17.5904 77.241 18.4897C77.241 19.389 76.5216 20.1084 75.6224 20.1084H46.2187C46.3266 22.6625 46.6144 29.1015 47.4956 44.7674C48.7724 67.7716 67.3858 85.1461 67.5836 85.326C67.9253 85.6317 68.1051 86.0634 68.1051 86.5131V95.8119C68.1051 96.0996 68.0332 96.3874 67.8713 96.6392L62.9977 104.913C62.7099 105.434 62.1704 105.722 61.6129 105.722Z" fill="black"/>
<path d="M89.6677 105.722C89.1102 105.722 88.5707 105.434 88.265 104.931L83.3913 96.6572C83.2475 96.4054 83.1576 96.1176 83.1576 95.8299V86.5311C83.1576 86.0814 83.3554 85.6497 83.6791 85.344C83.8589 85.1641 102.49 67.7536 103.767 44.7853C104.63 29.1195 104.936 22.6984 105.044 20.1264H75.6403C74.7411 20.1264 74.0217 19.407 74.0217 18.5077C74.0217 17.6084 74.7411 16.8889 75.6403 16.8889H106.734C107.634 16.8889 108.353 17.6084 108.353 18.5077C108.353 18.6156 108.335 21.2595 107.022 44.9652C105.781 67.3399 89.6138 84.1209 86.4126 87.2325V95.3982L91.0705 103.294C91.5201 104.067 91.2683 105.057 90.495 105.506C90.2432 105.65 89.9555 105.722 89.6677 105.722Z" fill="black"/>
<path d="M46.5424 71.9623C46.3626 71.9623 46.1828 71.9263 46.0029 71.8724C19.4407 62.4836 21.4189 30.0188 21.4369 29.677C21.4909 28.8317 22.1922 28.1662 23.0555 28.1662H37.2268C38.126 28.1662 38.8453 28.8856 38.8453 29.7849C38.8453 30.6842 38.126 31.4037 37.2268 31.4037H24.638C24.6201 37.6269 26.0048 61.3685 47.082 68.8147C47.9272 69.1205 48.3588 70.0378 48.0711 70.8831C47.8373 71.5486 47.2078 71.9623 46.5424 71.9623Z" fill="black"/>
<path d="M104.361 71.9623C103.695 71.9623 103.066 71.5486 102.832 70.8831C102.526 70.0378 102.976 69.1205 103.821 68.8147C124.934 61.3505 126.283 37.6269 126.265 31.4037H113.658C112.759 31.4037 112.04 30.6842 112.04 29.7849C112.04 28.8856 112.759 28.1662 113.658 28.1662H127.83C128.675 28.1662 129.376 28.8317 129.448 29.677C129.484 30.0188 131.463 62.4836 104.9 71.8724C104.738 71.9443 104.541 71.9623 104.361 71.9623Z" fill="black"/>
</svg>
