<svg width="149" height="135" viewBox="0 0 149 135" fill="none" xmlns="http://www.w3.org/2000/svg">
<path d="M36.6902 58.868C26.8437 58.868 18.8477 50.854 18.8477 40.9855C18.8477 31.1169 26.8437 23.103 36.6902 23.103C46.5367 23.103 54.5327 31.1169 54.5327 40.9855C54.5327 50.854 46.5367 58.868 36.6902 58.868ZM36.6902 27.2245C29.1054 27.2245 22.9599 33.4066 22.9599 40.9855C22.9599 48.5644 29.1282 54.7465 36.6902 54.7465C44.2521 54.7465 50.4205 48.5644 50.4205 40.9855C50.4205 33.4066 44.275 27.2245 36.6902 27.2245Z" fill="black"/>
<path d="M113.292 58.868C103.445 58.868 95.4495 50.854 95.4495 40.9855C95.4495 31.1169 103.445 23.103 113.292 23.103C123.139 23.103 131.135 31.1169 131.135 40.9855C131.135 50.854 123.139 58.868 113.292 58.868ZM113.292 27.2245C105.707 27.2245 99.5617 33.4066 99.5617 40.9855C99.5617 48.5644 105.73 54.7465 113.292 54.7465C120.854 54.7465 127.022 48.5644 127.022 40.9855C127.022 33.4066 120.877 27.2245 113.292 27.2245Z" fill="black"/>
<path d="M75.665 121.285C65.8185 121.285 57.8225 113.271 57.8225 103.402C57.8225 93.5339 65.8185 85.52 75.665 85.52C85.5116 85.52 93.5076 93.5339 93.5076 103.402C93.5076 113.271 85.5116 121.285 75.665 121.285ZM75.665 89.6415C68.0803 89.6415 61.9347 95.8236 61.9347 103.402C61.9347 110.981 68.1031 117.164 75.665 117.164C83.227 117.164 89.3953 110.981 89.3953 103.402C89.3953 95.8236 83.2498 89.6415 75.665 89.6415Z" fill="black"/>
<path d="M67.3263 92.0456C66.6409 92.0456 65.9784 91.7021 65.59 91.0839L43.3611 55.4564C42.7671 54.4947 43.0413 53.2125 44.0236 52.6172C44.9831 52.0218 46.2625 52.2966 46.8565 53.2812L69.0854 88.9087C69.6794 89.8704 69.4053 91.1526 68.4229 91.7479C68.0802 91.9311 67.7147 92.0456 67.3263 92.0456Z" fill="black"/>
<path d="M84.0265 92.0456C83.6838 92.0456 83.3183 91.954 82.9756 91.7709C81.9932 91.1984 81.6734 89.9391 82.2445 88.9545L103.103 53.327C103.674 52.3424 104.93 52.0219 105.913 52.5943C106.895 53.1667 107.215 54.426 106.644 55.4106L85.7856 91.0381C85.3972 91.6793 84.7119 92.0456 84.0265 92.0456Z" fill="black"/>
</svg>
