<svg width="150" height="147" viewBox="0 0 150 147" fill="none" xmlns="http://www.w3.org/2000/svg">
<path d="M74.9902 139.382C39.0652 139.382 9.83545 110.25 9.83545 74.4448C9.83545 38.6397 39.0652 9.50739 74.9902 9.50739C110.915 9.50739 140.145 38.6397 140.145 74.4448C140.145 110.25 110.915 139.382 74.9902 139.382ZM74.9902 12.5781C40.7637 12.5781 12.8967 40.3325 12.8967 74.4645C12.8967 108.597 40.7439 136.351 74.9902 136.351C109.236 136.351 137.084 108.597 137.084 74.4645C137.084 40.3325 109.236 12.5781 74.9902 12.5781Z" fill="#010101"/>
<path d="M110.145 128.281L107.084 128.261C107.538 49.6234 21.3497 43.1473 20.4807 43.0883L20.6782 40.0569C21.5867 40.116 110.639 46.7495 110.145 128.281Z" fill="#010101"/>
<path d="M59.2298 137.138C58.973 136.823 33.2193 105.605 36.8137 68.3035C38.927 46.4149 50.5399 26.7703 71.3167 9.92078L73.2522 12.2829C53.1468 28.5812 41.9092 47.5172 39.875 68.5594C36.3792 104.581 61.343 134.875 61.58 135.17L59.2298 137.138Z" fill="#010101"/>
<path d="M30.6716 121.234L30.2568 118.222C30.6321 118.163 67.347 112.907 87.0179 84.6609C99.48 66.7681 102.6 43.5213 96.2608 15.5701L99.243 14.9008C105.78 43.7182 102.502 67.7917 89.5063 86.4127C69.0653 115.762 31.0666 121.194 30.6716 121.234Z" fill="#010101"/>
<path d="M72.8178 122.71C71.534 122.71 70.27 122.671 69.006 122.612C35.5301 120.801 14.1805 96.0185 13.2917 94.9556L15.6222 92.9872C15.8395 93.2431 37.0508 117.848 69.2035 119.561C91.4221 120.722 113.621 110.939 135.227 90.4086L137.34 92.6132C116.307 112.592 94.6216 122.71 72.8178 122.71Z" fill="#010101"/>
<path d="M46.0368 51.7689C50.1271 51.7689 53.443 48.4641 53.443 44.3874C53.443 40.3107 50.1271 37.0059 46.0368 37.0059C41.9465 37.0059 38.6306 40.3107 38.6306 44.3874C38.6306 48.4641 41.9465 51.7689 46.0368 51.7689Z" fill="#010101"/>
<path d="M92.4885 85.0939C96.5788 85.0939 99.8947 81.7891 99.8947 77.7124C99.8947 73.6357 96.5788 70.3309 92.4885 70.3309C88.3981 70.3309 85.0823 73.6357 85.0823 77.7124C85.0823 81.7891 88.3981 85.0939 92.4885 85.0939Z" fill="#010101"/>
<path d="M47.9724 124.403C52.0627 124.403 55.3785 121.098 55.3785 117.021C55.3785 112.945 52.0627 109.64 47.9724 109.64C43.882 109.64 40.5662 112.945 40.5662 117.021C40.5662 121.098 43.882 124.403 47.9724 124.403Z" fill="#010101"/>
<path d="M108.841 118.734C112.932 118.734 116.248 115.429 116.248 111.352C116.248 107.276 112.932 103.971 108.841 103.971C104.751 103.971 101.435 107.276 101.435 111.352C101.435 115.429 104.751 118.734 108.841 118.734Z" fill="#010101"/>
</svg>
