<svg width="144" height="139" viewBox="0 0 144 139" fill="none" xmlns="http://www.w3.org/2000/svg">
<path d="M55.3778 30.1137C49.4557 30.1137 44.6516 25.2759 44.6516 19.3513C44.6516 13.4092 49.4732 8.58887 55.3778 8.58887C61.2825 8.58887 66.104 13.4267 66.104 19.3513C66.104 25.2759 61.2999 30.1137 55.3778 30.1137ZM55.3778 11.2882C50.9581 11.2882 47.3594 14.8991 47.3594 19.3338C47.3594 23.7684 50.9581 27.3793 55.3778 27.3793C59.7976 27.3793 63.3962 23.7684 63.3962 19.3338C63.4137 14.8991 59.7976 11.2882 55.3778 11.2882Z" fill="black"/>
<path d="M28.6671 48.9391C22.745 48.9391 17.9409 44.1013 17.9409 38.1767C17.9409 32.2521 22.7625 27.4143 28.6671 27.4143C34.5892 27.4143 39.3933 32.2521 39.3933 38.1767C39.3933 44.1013 34.5718 48.9391 28.6671 48.9391ZM28.6671 30.1137C24.2474 30.1137 20.6487 33.7245 20.6487 38.1592C20.6487 42.5939 24.2474 46.2047 28.6671 46.2047C33.0869 46.2047 36.6855 42.5939 36.6855 38.1592C36.6855 33.7245 33.0869 30.1137 28.6671 30.1137Z" fill="black"/>
<path d="M19.8451 80.2974C13.923 80.2974 9.1189 75.4596 9.1189 69.535C9.1189 63.5929 13.9404 58.7726 19.8451 58.7726C25.7497 58.7726 30.5713 63.6104 30.5713 69.535C30.5887 75.4771 25.7672 80.2974 19.8451 80.2974ZM19.8451 61.4895C15.4253 61.4895 11.8266 65.1003 11.8266 69.535C11.8266 73.9697 15.4253 77.5805 19.8451 77.5805C24.2648 77.5805 27.8635 73.9697 27.8635 69.535C27.881 65.1003 24.2823 61.4895 19.8451 61.4895Z" fill="black"/>
<path d="M28.6671 111.673C22.745 111.673 17.9409 106.835 17.9409 100.911C17.9409 94.9687 22.7625 90.1484 28.6671 90.1484C34.5892 90.1484 39.3933 94.9863 39.3933 100.911C39.3933 106.835 34.5718 111.673 28.6671 111.673ZM28.6671 92.8478C24.2474 92.8478 20.6487 96.4587 20.6487 100.893C20.6487 105.328 24.2474 108.939 28.6671 108.939C33.0869 108.939 36.6855 105.328 36.6855 100.893C36.6855 96.4587 33.0869 92.8478 28.6671 92.8478Z" fill="black"/>
<path d="M55.3778 131.621C49.4557 131.621 44.6516 126.783 44.6516 120.858C44.6516 114.916 49.4732 110.096 55.3778 110.096C61.2825 110.096 66.104 114.934 66.104 120.858C66.104 126.783 61.2999 131.621 55.3778 131.621ZM55.3778 112.795C50.9581 112.795 47.3594 116.406 47.3594 120.841C47.3594 125.275 50.9581 128.886 55.3778 128.886C59.7976 128.886 63.3962 125.275 63.3962 120.841C63.4137 116.406 59.7976 112.795 55.3778 112.795Z" fill="black"/>
<path d="M88.6395 30.1137C82.7174 30.1137 77.9133 25.2759 77.9133 19.3513C77.9133 13.4092 82.7349 8.58887 88.6395 8.58887C94.5616 8.58887 99.3657 13.4267 99.3657 19.3513C99.3657 25.2759 94.5442 30.1137 88.6395 30.1137ZM88.6395 11.2882C84.2198 11.2882 80.6211 14.8991 80.6211 19.3338C80.6211 23.7684 84.2198 27.3793 88.6395 27.3793C93.0593 27.3793 96.658 23.7684 96.658 19.3338C96.658 14.8991 93.0593 11.2882 88.6395 11.2882Z" fill="black"/>
<path d="M115.35 48.9391C109.428 48.9391 104.624 44.1013 104.624 38.1767C104.624 32.2521 109.446 27.4143 115.35 27.4143C121.255 27.4143 126.076 32.2521 126.076 38.1767C126.076 44.1013 121.272 48.9391 115.35 48.9391ZM115.35 30.1137C110.93 30.1137 107.332 33.7245 107.332 38.1592C107.332 42.5939 110.93 46.2047 115.35 46.2047C119.77 46.2047 123.369 42.5939 123.369 38.1592C123.369 33.7245 119.77 30.1137 115.35 30.1137Z" fill="black"/>
<path d="M124.155 80.2974C118.233 80.2974 113.428 75.4596 113.428 69.535C113.428 63.5929 118.25 58.7726 124.155 58.7726C130.077 58.7726 134.881 63.6104 134.881 69.535C134.881 75.4771 130.077 80.2974 124.155 80.2974ZM124.155 61.4895C119.735 61.4895 116.136 65.1003 116.136 69.535C116.136 73.9697 119.735 77.5805 124.155 77.5805C128.574 77.5805 132.173 73.9697 132.173 69.535C132.191 65.1003 128.592 61.4895 124.155 61.4895Z" fill="black"/>
<path d="M115.35 111.673C109.428 111.673 104.624 106.835 104.624 100.911C104.624 94.9687 109.446 90.1484 115.35 90.1484C121.255 90.1484 126.076 94.9863 126.076 100.911C126.076 106.835 121.272 111.673 115.35 111.673ZM115.35 92.8478C110.93 92.8478 107.332 96.4587 107.332 100.893C107.332 105.328 110.93 108.939 115.35 108.939C119.77 108.939 123.369 105.328 123.369 100.893C123.369 96.4587 119.77 92.8478 115.35 92.8478Z" fill="black"/>
<path d="M88.6395 131.621C82.7174 131.621 77.9133 126.783 77.9133 120.858C77.9133 114.916 82.7349 110.096 88.6395 110.096C94.5616 110.096 99.3657 114.934 99.3657 120.858C99.3657 126.783 94.5442 131.621 88.6395 131.621ZM88.6395 112.795C84.2198 112.795 80.6211 116.406 80.6211 120.841C80.6211 125.275 84.2198 128.886 88.6395 128.886C93.0593 128.886 96.658 125.275 96.658 120.841C96.658 116.406 93.0593 112.795 88.6395 112.795Z" fill="black"/>
<path d="M72.0086 42.8042C68.4448 42.8042 65.5449 39.8945 65.5449 36.3187C65.5449 32.743 68.4448 29.8333 72.0086 29.8333C75.5723 29.8333 78.4722 32.743 78.4722 36.3187C78.4722 39.8945 75.5723 42.8042 72.0086 42.8042ZM72.0086 32.5326C69.9297 32.5326 68.2527 34.2329 68.2527 36.3012C68.2527 38.3696 69.9472 40.0698 72.0086 40.0698C74.07 40.0698 75.7645 38.3696 75.7645 36.3012C75.7645 34.2329 74.0874 32.5326 72.0086 32.5326Z" fill="black"/>
<path d="M72.0086 109.675C68.4448 109.675 65.5449 106.765 65.5449 103.189C65.5449 99.6137 68.4448 96.704 72.0086 96.704C75.5723 96.704 78.4722 99.6137 78.4722 103.189C78.4722 106.765 75.5723 109.675 72.0086 109.675ZM72.0086 99.4034C69.9297 99.4034 68.2527 101.104 68.2527 103.172C68.2527 105.24 69.9472 106.941 72.0086 106.941C74.07 106.941 75.7645 105.24 75.7645 103.172C75.7645 101.104 74.0874 99.4034 72.0086 99.4034Z" fill="black"/>
<path d="M52.5826 49.798C49.0188 49.798 46.1189 46.8883 46.1189 43.3125C46.1189 39.7367 49.0188 36.827 52.5826 36.827C56.1463 36.827 59.0462 39.7367 59.0462 43.3125C59.0462 46.8883 56.1463 49.798 52.5826 49.798ZM52.5826 39.5264C50.5037 39.5264 48.8267 41.2266 48.8267 43.295C48.8267 45.3633 50.5212 47.0636 52.5826 47.0636C54.6439 47.0636 56.3385 45.3633 56.3385 43.295C56.3385 41.2266 54.6614 39.5264 52.5826 39.5264Z" fill="black"/>
<path d="M40.0745 66.6253C36.5108 66.6253 33.6108 63.7156 33.6108 60.1398C33.6108 56.564 36.5108 53.6543 40.0745 53.6543C43.6383 53.6543 46.5382 56.564 46.5382 60.1398C46.5382 63.7156 43.6383 66.6253 40.0745 66.6253ZM40.0745 56.3537C37.9957 56.3537 36.3186 58.0539 36.3186 60.1223C36.3186 62.1906 38.0131 63.8909 40.0745 63.8909C42.1359 63.8909 43.8304 62.1906 43.8304 60.1223C43.8304 58.0539 42.1534 56.3537 40.0745 56.3537Z" fill="black"/>
<path d="M40.0745 87.4314C36.5108 87.4314 33.6108 84.5217 33.6108 80.9459C33.6108 77.3702 36.5108 74.4604 40.0745 74.4604C43.6383 74.4604 46.5382 77.3702 46.5382 80.9459C46.5382 84.5217 43.6383 87.4314 40.0745 87.4314ZM40.0745 77.1773C37.9957 77.1773 36.3186 78.8776 36.3186 80.9459C36.3186 83.0318 38.0131 84.7146 40.0745 84.7146C42.1359 84.7146 43.8304 83.0143 43.8304 80.9459C43.8479 78.8601 42.1534 77.1773 40.0745 77.1773Z" fill="black"/>
<path d="M52.5826 104.539C49.0188 104.539 46.1189 101.629 46.1189 98.0536C46.1189 94.4778 49.0188 91.5681 52.5826 91.5681C56.1463 91.5681 59.0462 94.4778 59.0462 98.0536C59.0462 101.629 56.1463 104.539 52.5826 104.539ZM52.5826 94.285C50.5037 94.285 48.8267 95.9853 48.8267 98.0536C48.8267 100.139 50.5212 101.822 52.5826 101.822C54.6439 101.822 56.3385 100.122 56.3385 98.0536C56.3385 95.9677 54.6614 94.285 52.5826 94.285Z" fill="black"/>
<path d="M91.7488 49.798C88.1851 49.798 85.2852 46.8883 85.2852 43.3125C85.2852 39.7367 88.1851 36.827 91.7488 36.827C95.3126 36.827 98.2125 39.7367 98.2125 43.3125C98.2125 46.8883 95.33 49.798 91.7488 49.798ZM91.7488 39.5264C89.67 39.5264 87.9929 41.2266 87.9929 43.295C87.9929 45.3633 89.6874 47.0636 91.7488 47.0636C93.8277 47.0636 95.5047 45.3633 95.5047 43.295C95.5047 41.2266 93.8277 39.5264 91.7488 39.5264Z" fill="black"/>
<path d="M104.257 66.6253C100.693 66.6253 97.7932 63.7156 97.7932 60.1398C97.7932 56.564 100.693 53.6543 104.257 53.6543C107.821 53.6543 110.721 56.564 110.721 60.1398C110.721 63.7156 107.821 66.6253 104.257 66.6253ZM104.257 56.3537C102.178 56.3537 100.501 58.0539 100.501 60.1223C100.501 62.1906 102.195 63.8909 104.257 63.8909C106.336 63.8909 108.013 62.1906 108.013 60.1223C108.013 58.0539 106.336 56.3537 104.257 56.3537Z" fill="black"/>
<path d="M104.257 87.4314C100.693 87.4314 97.7932 84.5217 97.7932 80.9459C97.7932 77.3702 100.693 74.4604 104.257 74.4604C107.821 74.4604 110.721 77.3702 110.721 80.9459C110.738 84.5217 107.821 87.4314 104.257 87.4314ZM104.257 77.1773C102.178 77.1773 100.501 78.8776 100.501 80.9459C100.501 83.0318 102.195 84.7146 104.257 84.7146C106.336 84.7146 108.013 83.0143 108.013 80.9459C108.03 78.8601 106.336 77.1773 104.257 77.1773Z" fill="black"/>
<path d="M91.7488 104.539C88.1851 104.539 85.2852 101.629 85.2852 98.0536C85.2852 94.4778 88.1851 91.5681 91.7488 91.5681C95.3126 91.5681 98.2125 94.4778 98.2125 98.0536C98.23 101.629 95.33 104.539 91.7488 104.539ZM91.7488 94.285C89.67 94.285 87.9929 95.9853 87.9929 98.0536C87.9929 100.139 89.6874 101.822 91.7488 101.822C93.8277 101.822 95.5047 100.122 95.5047 98.0536C95.5222 95.9677 93.8277 94.285 91.7488 94.285Z" fill="black"/>
<path d="M64.7589 57.0724C62.3656 57.0724 60.4265 55.1267 60.4265 52.7253C60.4265 50.3239 62.3656 48.3783 64.7589 48.3783C67.1522 48.3783 69.0913 50.3239 69.0913 52.7253C69.0913 55.1092 67.1522 57.0724 64.7589 57.0724ZM64.7589 51.0777C63.8505 51.0777 63.1343 51.8139 63.1343 52.7078C63.1343 53.6193 63.868 54.3379 64.7589 54.3379C65.6499 54.3379 66.3836 53.6017 66.3836 52.7078C66.3836 51.8139 65.6499 51.0777 64.7589 51.0777Z" fill="black"/>
<path d="M56.653 63.9084C54.2597 63.9084 52.3206 61.9628 52.3206 59.5614C52.3206 57.16 54.2597 55.2144 56.653 55.2144C59.0463 55.2144 60.9854 57.16 60.9854 59.5614C60.9854 61.9628 59.0463 63.9084 56.653 63.9084ZM56.653 57.9137C55.7446 57.9137 55.0283 58.6499 55.0283 59.5439C55.0283 60.4378 55.762 61.174 56.653 61.174C57.5439 61.174 58.2776 60.4378 58.2776 59.5439C58.2776 58.6499 57.5614 57.9137 56.653 57.9137Z" fill="black"/>
<path d="M53.6659 76.0205C51.2726 76.0205 49.3335 74.0748 49.3335 71.6735C49.3335 69.2721 51.2726 67.3264 53.6659 67.3264C56.0592 67.3264 57.9983 69.2721 57.9983 71.6735C57.9983 74.0748 56.0592 76.0205 53.6659 76.0205ZM53.6659 70.0433C52.775 70.0433 52.0413 70.7795 52.0413 71.6735C52.0413 72.5674 52.775 73.3036 53.6659 73.3036C54.5743 73.3036 55.2906 72.5674 55.2906 71.6735C55.2906 70.7795 54.5743 70.0433 53.6659 70.0433Z" fill="black"/>
<path d="M57.7013 86.8706C55.308 86.8706 53.3689 84.9249 53.3689 82.5236C53.3689 80.1222 55.308 78.1765 57.7013 78.1765C60.0946 78.1765 62.0337 80.1222 62.0337 82.5236C62.0337 84.9249 60.0946 86.8706 57.7013 86.8706ZM57.7013 80.8759C56.8104 80.8759 56.0766 81.6121 56.0766 82.506C56.0766 83.4 56.8104 84.1362 57.7013 84.1362C58.5922 84.1362 59.326 83.4 59.326 82.506C59.326 81.6121 58.5922 80.8759 57.7013 80.8759Z" fill="black"/>
<path d="M67.746 92.8478C65.3527 92.8478 63.4136 90.9021 63.4136 88.5007C63.4136 86.0993 65.3527 84.1537 67.746 84.1537C70.1393 84.1537 72.0784 86.0993 72.0784 88.5007C72.0784 90.9021 70.1393 92.8478 67.746 92.8478ZM67.746 86.8706C66.855 86.8706 66.1213 87.6068 66.1213 88.5007C66.1213 89.4122 66.855 90.1309 67.746 90.1309C68.6369 90.1309 69.3706 89.3947 69.3706 88.5007C69.3706 87.6068 68.6369 86.8706 67.746 86.8706Z" fill="black"/>
<path d="M80.6735 91.5682C78.2802 91.5682 76.3411 89.6226 76.3411 87.2212C76.3411 84.8198 78.2802 82.8741 80.6735 82.8741C83.0668 82.8741 85.0059 84.8198 85.0059 87.2212C85.0059 89.6226 83.0668 91.5682 80.6735 91.5682ZM80.6735 85.5735C79.7825 85.5735 79.0488 86.3097 79.0488 87.2037C79.0488 88.0976 79.7825 88.8338 80.6735 88.8338C81.5644 88.8338 82.2981 88.0976 82.2981 87.2037C82.2981 86.3097 81.5644 85.5735 80.6735 85.5735Z" fill="black"/>
<path d="M90.1942 82.2956C87.8009 82.2956 85.8618 80.35 85.8618 77.9486C85.8618 75.5472 87.8009 73.6016 90.1942 73.6016C92.5875 73.6016 94.5266 75.5472 94.5266 77.9486C94.5266 80.35 92.5875 82.2956 90.1942 82.2956ZM90.1942 76.3185C89.3033 76.3185 88.5696 77.0547 88.5696 77.9486C88.5696 78.8601 89.3033 79.5787 90.1942 79.5787C91.0852 79.5787 91.8189 78.8425 91.8189 77.9486C91.8189 77.0547 91.0852 76.3185 90.1942 76.3185Z" fill="black"/>
<path d="M91.7489 71.4631C89.3556 71.4631 87.4165 69.5175 87.4165 67.1161C87.4165 64.7147 89.3556 62.769 91.7489 62.769C94.1422 62.769 96.0813 64.7147 96.0813 67.1161C96.0988 69.5175 94.1422 71.4631 91.7489 71.4631ZM91.7489 65.4684C90.858 65.4684 90.1243 66.2046 90.1243 67.0985C90.1243 67.9925 90.858 68.7287 91.7489 68.7287C92.6573 68.7287 93.3736 67.9925 93.3736 67.0985C93.391 66.2046 92.6573 65.4684 91.7489 65.4684Z" fill="black"/>
<path d="M87.2069 60.9111C84.8136 60.9111 82.8745 58.9655 82.8745 56.5641C82.8745 54.1627 84.8136 52.217 87.2069 52.217C89.6002 52.217 91.5393 54.1627 91.5393 56.5641C91.5393 58.9655 89.6002 60.9111 87.2069 60.9111ZM87.2069 54.9164C86.2985 54.9164 85.5823 55.6526 85.5823 56.5465C85.5823 57.4405 86.316 58.1767 87.2069 58.1767C88.0979 58.1767 88.8316 57.4405 88.8316 56.5465C88.849 55.6526 88.1153 54.9164 87.2069 54.9164Z" fill="black"/>
<path d="M76.2711 54.9164C73.8778 54.9164 71.9387 52.9707 71.9387 50.5693C71.9387 48.1679 73.8778 46.2223 76.2711 46.2223C78.6644 46.2223 80.6035 48.1679 80.6035 50.5693C80.6035 52.9707 78.6644 54.9164 76.2711 54.9164ZM76.2711 48.9392C75.3627 48.9392 74.6465 49.6754 74.6465 50.5693C74.6465 51.4633 75.3802 52.1995 76.2711 52.1995C77.1621 52.1995 77.8958 51.4633 77.8958 50.5693C77.8958 49.6754 77.1621 48.9392 76.2711 48.9392Z" fill="black"/>
</svg>
