<svg width="159" height="158" viewBox="0 0 159 158" fill="none" xmlns="http://www.w3.org/2000/svg">
<path d="M87.9654 128.848H33.7614C25.2583 128.848 18.3354 121.912 18.3354 113.392V36.943C18.3354 28.4487 25.2583 21.5376 33.7614 21.5376H102.388C103.467 21.5376 104.319 22.4172 104.319 23.4727C104.319 24.5282 103.441 25.4078 102.388 25.4078H33.7614C27.3903 25.4078 22.2233 30.5848 22.2233 36.9179V113.367C22.2233 119.75 27.3903 124.927 33.7614 124.927H87.9654C89.0439 124.927 89.8967 125.807 89.8967 126.863C89.8967 127.918 89.0439 128.848 87.9654 128.848Z" fill="black"/>
<path d="M119.018 90.3972C117.939 90.3972 117.087 89.5176 117.087 88.4621V36.9431C117.087 30.5849 111.919 25.433 105.599 25.433H102.413C101.335 25.433 100.482 24.5534 100.482 23.4978C100.482 22.4423 101.36 21.5627 102.413 21.5627H105.599C114.077 21.5627 120.974 28.4738 120.974 36.9682V88.4872C120.974 89.5176 120.096 90.3972 119.018 90.3972Z" fill="black"/>
<path d="M82.7982 25.4078H55.2573C54.1787 25.4078 53.3259 24.5282 53.3259 23.4727C53.3259 22.4172 54.2038 21.5376 55.2573 21.5376H82.7732C83.8517 21.5376 84.7045 22.4172 84.7045 23.4727C84.7045 24.5282 83.8517 25.4078 82.7982 25.4078Z" fill="black"/>
<path d="M46.7041 35.7115C45.6255 35.7115 44.7727 34.8319 44.7727 33.7764V12.8672C44.7727 11.7866 45.6506 10.9321 46.7041 10.9321C47.7576 10.9321 48.6355 11.8117 48.6355 12.8672V33.7764C48.6355 34.8319 47.7576 35.7115 46.7041 35.7115Z" fill="black"/>
<path d="M92.104 35.7115C91.0254 35.7115 90.1726 34.8319 90.1726 33.7764V12.8672C90.1726 11.7866 91.0505 10.9321 92.104 10.9321C93.1575 10.9321 94.0354 11.8117 94.0354 12.8672V33.7764C94.0354 34.8319 93.1825 35.7115 92.104 35.7115Z" fill="black"/>
<path d="M119.043 47.096H20.292C19.2134 47.096 18.3606 46.2164 18.3606 45.1609C18.3606 44.1054 19.2385 43.2258 20.292 43.2258H119.043C120.122 43.2258 120.974 44.1054 120.974 45.1609C120.974 46.2164 120.097 47.096 119.043 47.096Z" fill="black"/>
<path d="M116.133 149.455C98.751 149.455 84.6294 135.281 84.6294 117.891C84.6294 100.5 98.7761 86.3257 116.133 86.3257C133.491 86.3257 147.637 100.5 147.637 117.891C147.637 135.281 133.516 149.455 116.133 149.455ZM116.133 90.221C100.908 90.221 88.5172 102.636 88.5172 117.891C88.5172 133.145 100.908 145.56 116.133 145.56C131.359 145.56 143.75 133.145 143.75 117.891C143.75 102.636 131.359 90.221 116.133 90.221Z" fill="black"/>
<path d="M112.597 130.28C112.095 130.28 111.619 130.104 111.242 129.727L98.1491 116.911C97.3715 116.157 97.3715 114.925 98.124 114.171C98.8765 113.417 100.106 113.392 100.858 114.146L112.572 125.631L131.133 107.285C131.911 106.531 133.115 106.531 133.867 107.31C134.62 108.064 134.62 109.296 133.842 110.05L113.926 129.753C113.575 130.079 113.073 130.28 112.597 130.28Z" fill="black"/>
<path d="M72.9658 76.6251H67.6232C64.7386 76.6251 62.3809 74.2628 62.3809 71.3727V66.0198C62.3809 63.1297 64.7386 60.7673 67.6232 60.7673H72.9658C75.8503 60.7673 78.2081 63.1297 78.2081 66.0198V71.3727C78.2081 74.2628 75.8503 76.6251 72.9658 76.6251ZM67.6232 64.0093C66.5195 64.0093 65.6416 64.914 65.6416 65.9946V71.3476C65.6416 72.4534 66.5446 73.3329 67.6232 73.3329H72.9658C74.0695 73.3329 74.9473 72.4282 74.9473 71.3476V65.9946C74.9473 64.8889 74.0444 64.0093 72.9658 64.0093H67.6232Z" fill="black"/>
<path d="M92.0791 76.6251H86.7365C83.8519 76.6251 81.4941 74.2628 81.4941 71.3727V66.0198C81.4941 63.1297 83.8519 60.7673 86.7365 60.7673H92.0791C94.9636 60.7673 97.3214 63.1297 97.3214 66.0198V71.3727C97.3214 74.2628 94.9636 76.6251 92.0791 76.6251ZM86.7365 64.0093C85.6328 64.0093 84.7549 64.914 84.7549 65.9946V71.3476C84.7549 72.4534 85.6579 73.3329 86.7365 73.3329H92.0791C93.1827 73.3329 94.0606 72.4282 94.0606 71.3476V65.9946C94.0606 64.8889 93.1576 64.0093 92.0791 64.0093H86.7365Z" fill="black"/>
<path d="M52.5986 97.0065H47.256C44.3715 97.0065 42.0137 94.6441 42.0137 91.7541V86.4011C42.0137 83.511 44.3715 81.1487 47.256 81.1487H52.5986C55.4831 81.1487 57.8409 83.511 57.8409 86.4011V91.7541C57.8409 94.6693 55.4831 97.0065 52.5986 97.0065ZM47.256 84.4157C46.1523 84.4157 45.2744 85.3205 45.2744 86.4011V91.7541C45.2744 92.8598 46.1774 93.7394 47.256 93.7394H52.5986C53.7023 93.7394 54.5802 92.8347 54.5802 91.7541V86.4011C54.5802 85.2953 53.6772 84.4157 52.5986 84.4157H47.256Z" fill="black"/>
<path d="M72.9658 97.0065H67.6232C64.7386 97.0065 62.3809 94.6441 62.3809 91.7541V86.4011C62.3809 83.511 64.7386 81.1487 67.6232 81.1487H72.9658C75.8503 81.1487 78.2081 83.511 78.2081 86.4011V91.7541C78.2081 94.6693 75.8503 97.0065 72.9658 97.0065ZM67.6232 84.4157C66.5195 84.4157 65.6416 85.3205 65.6416 86.4011V91.7541C65.6416 92.8598 66.5446 93.7394 67.6232 93.7394H72.9658C74.0695 93.7394 74.9473 92.8347 74.9473 91.7541V86.4011C74.9473 85.2953 74.0444 84.4157 72.9658 84.4157H67.6232Z" fill="black"/>
<path d="M92.0791 97.0065H86.7365C83.8519 97.0065 81.4941 94.6441 81.4941 91.7541V86.4011C81.4941 83.511 83.8519 81.1487 86.7365 81.1487H92.0791C94.9636 81.1487 97.3214 83.511 97.3214 86.4011V91.7541C97.3214 94.6693 94.9636 97.0065 92.0791 97.0065ZM86.7365 84.4157C85.6328 84.4157 84.7549 85.3205 84.7549 86.4011V91.7541C84.7549 92.8598 85.6579 93.7394 86.7365 93.7394H92.0791C93.1827 93.7394 94.0606 92.8347 94.0606 91.7541V86.4011C94.0606 85.2953 93.1576 84.4157 92.0791 84.4157H86.7365Z" fill="black"/>
</svg>
