<svg width="152" height="80" viewBox="0 0 152 80" fill="none" xmlns="http://www.w3.org/2000/svg">
<path d="M42.7972 66.9458C42.2547 66.9458 41.7122 66.9054 41.1496 66.8449H41.1295C26.04 66.8449 13.6228 54.3556 13.6228 39.0215C13.6228 23.6671 26.0601 11.1778 41.3505 11.1778C41.7925 11.1778 53.2051 10.855 60.358 18.8651L78.3609 39.082L54.9531 62.5675C54.712 62.7692 49.0861 66.9458 42.7972 66.9458ZM41.5715 14.3052C41.451 14.3052 41.3907 14.3052 41.3907 14.3052C27.7679 14.3052 16.7171 25.4023 16.7171 39.0215C16.7171 52.6406 27.7679 63.7377 41.3304 63.7377C46.7956 64.4237 52.2808 60.6507 53.0042 60.1261L74.0812 38.9609L58.0072 20.9433C52.321 14.5675 43.0182 14.3052 41.5715 14.3052Z" fill="black"/>
<path d="M109.545 66.966C103.396 66.966 97.7503 62.7692 97.5092 62.5675L97.3485 62.4262L74.0813 39.082L92.1043 18.8651C99.2572 10.855 110.69 11.1778 111.152 11.1778C126.382 11.1778 138.819 23.6671 138.819 39.0215C138.819 54.3758 126.382 66.8651 111.092 66.8651C110.589 66.9256 110.067 66.966 109.545 66.966ZM99.4381 60.1261C100.161 60.6507 105.627 64.4237 110.931 63.7377C124.694 63.7175 135.725 52.6406 135.725 39.0013C135.725 25.3619 124.694 14.3052 111.132 14.3052C110.971 14.2648 100.603 14.0429 94.4551 20.9433L78.3811 38.9609L99.4381 60.1261Z" fill="black"/>
</svg>
