<svg width="149" height="129" viewBox="0 0 149 129" fill="none" xmlns="http://www.w3.org/2000/svg">
<path d="M78.8026 75.3498C78.5361 75.3498 78.2696 75.2928 78.0411 75.1597L24.0652 48.192C23.475 47.9067 23.1133 47.3171 23.1133 46.6515C23.1133 46.0049 23.4941 45.4153 24.0652 45.13L78.0411 18.4666C78.5171 18.2194 79.0882 18.2194 79.5832 18.4666L132.398 45.13C132.969 45.4153 133.331 46.0049 133.331 46.6515C133.331 47.2981 132.969 47.8877 132.398 48.1729L79.5832 75.1597C79.3548 75.2738 79.0692 75.3498 78.8026 75.3498ZM28.6727 46.6705L78.8026 71.6984L127.847 46.6705L78.8026 21.9089L28.6727 46.6705Z" fill="black"/>
<path d="M78.2316 92.7324C77.965 92.7324 77.7175 92.6754 77.47 92.5613L24.0654 66.1831C23.2086 65.7647 22.8659 64.7377 23.2848 63.8819C23.7036 63.0451 24.7317 62.6838 25.5885 63.1022L78.2126 89.1L129.694 63.1022C130.532 62.6838 131.579 63.0071 131.998 63.8629C132.417 64.6997 132.093 65.7457 131.236 66.1641L79.0122 92.5422C78.7647 92.6754 78.4981 92.7324 78.2316 92.7324Z" fill="black"/>
<path d="M78.2316 110.705C77.965 110.705 77.7175 110.648 77.47 110.533L24.0654 84.1553C23.2086 83.7369 22.8659 82.7099 23.2848 81.8541C23.7036 81.0173 24.7317 80.6559 25.5885 81.0743L78.2126 107.072L129.694 81.0743C130.532 80.6559 131.579 80.9792 131.998 81.835C132.417 82.6718 132.093 83.7178 131.236 84.1362L79.0122 110.514C78.7647 110.648 78.4981 110.705 78.2316 110.705Z" fill="black"/>
</svg>
