<svg width="150" height="160" viewBox="0 0 150 160" fill="none" xmlns="http://www.w3.org/2000/svg">
<path d="M116.992 143.367H29.0545C28.9716 143.367 28.861 143.367 28.778 143.34C28.4463 143.285 20.8164 142.207 17.7755 136.405C15.868 132.758 16.255 128.227 18.9642 123.005C26.2347 108.886 50.7003 66.8625 53.6582 61.7787V17.1301C53.6582 15.9421 54.6258 15.0027 55.7869 15.0027H91.5591C92.7478 15.0027 93.6877 15.9697 93.6877 17.1301V61.8063L129.211 125.105C129.266 125.187 129.294 125.27 129.322 125.353C129.46 125.657 132.363 133.145 128.741 138.477C126.557 141.737 122.604 143.367 116.992 143.367ZM29.2204 139.085H116.992C121.084 139.085 123.848 138.09 125.203 136.101C127.359 132.924 125.7 127.867 125.396 127.066L89.7069 63.4365C89.5134 63.1049 89.4305 62.7457 89.4305 62.3866V19.2852H57.9155V62.3866C57.9155 62.7734 57.805 63.1325 57.6114 63.4641C57.3626 63.9338 30.4091 110.13 22.7515 124.994C20.7334 128.917 20.3188 132.122 21.5628 134.471C23.3873 137.924 28.391 138.947 29.2204 139.085Z" fill="black"/>
<path d="M71.7378 34.3706H55.7868C54.5981 34.3706 53.6582 33.4036 53.6582 32.2432C53.6582 31.0827 54.6258 30.1157 55.7868 30.1157H71.7378C72.9265 30.1157 73.8665 31.0827 73.8665 32.2432C73.8665 33.4036 72.9265 34.3706 71.7378 34.3706Z" fill="black"/>
<path d="M71.7378 64.0996H55.7868C54.5981 64.0996 53.6582 63.1326 53.6582 61.9722C53.6582 60.8117 54.6258 59.8447 55.7868 59.8447H71.7378C72.9265 59.8447 73.8665 60.8117 73.8665 61.9722C73.8665 63.1326 72.9265 64.0996 71.7378 64.0996Z" fill="black"/>
<path d="M67.8676 50.3127H55.7868C54.5981 50.3127 53.6582 49.3457 53.6582 48.1853C53.6582 47.0249 54.6258 46.0579 55.7868 46.0579H67.8676C69.0563 46.0579 69.9962 47.0249 69.9962 48.1853C69.9962 49.3457 69.0286 50.3127 67.8676 50.3127Z" fill="black"/>
</svg>
