<svg width="146" height="149" viewBox="0 0 146 149" fill="none" xmlns="http://www.w3.org/2000/svg">
<path d="M135.653 58.7074H126.159V37.959H131.894C134.096 37.959 135.877 36.1827 135.877 33.9885V19.8677C135.877 17.6734 134.096 15.8971 131.894 15.8971H117.729C115.527 15.8971 113.745 17.6734 113.745 19.8677V23.2262H87.1808V13.7476C87.1808 11.5534 85.3989 9.7771 83.1976 9.7771H61.5297C59.3285 9.7771 57.5466 11.5534 57.5466 13.7476V23.2113H34.1866V19.8677C34.1866 17.6734 32.4046 15.8971 30.2034 15.8971H16.0376C13.8364 15.8971 12.0545 17.6734 12.0545 19.8677V33.9885C12.0545 35.0483 12.4737 36.0484 13.2225 36.7947C13.9712 37.5411 14.9745 37.959 16.0376 37.959H21.7878V58.7074H12.2791C10.0778 58.7074 8.2959 60.4837 8.2959 62.6779V84.2771C8.2959 86.4714 10.0778 88.2477 12.2791 88.2477H21.7728V111.623H16.0227C13.8214 111.623 12.0395 113.399 12.0395 115.594V129.714C12.0395 130.774 12.4588 131.774 13.2075 132.521C13.9562 133.267 14.9595 133.685 16.0227 133.685H30.1884C32.3896 133.685 34.1716 131.909 34.1716 129.714V127.729H57.5166V137.193C57.5166 139.387 59.2986 141.163 61.4998 141.163H83.1827C85.3839 141.163 87.1659 139.387 87.1659 137.193V127.729H113.73V129.7C113.73 131.894 115.512 133.67 117.714 133.67H131.879C134.081 133.67 135.862 131.894 135.862 129.7V115.579C135.862 113.384 134.081 111.608 131.879 111.608H126.144V88.2626H135.638C137.839 88.2626 139.621 86.4863 139.621 84.292V62.6779C139.651 60.4986 137.854 58.7074 135.653 58.7074ZM117.743 18.569H131.909C132.613 18.569 133.197 19.1512 133.197 19.8527V33.9736C133.197 34.6751 132.613 35.2573 131.909 35.2573H117.743C117.04 35.2573 116.456 34.6751 116.456 33.9736V24.5547V24.5398V24.5248V19.8527C116.441 19.1512 117.025 18.569 117.743 18.569ZM60.242 13.7476C60.242 13.0461 60.826 12.4639 61.5297 12.4639H83.2126C83.9164 12.4639 84.5004 13.0461 84.5004 13.7476V24.5547V35.3468C84.5004 36.0484 83.9164 36.6305 83.2126 36.6305H61.5297C60.826 36.6305 60.242 36.0484 60.242 35.3468V13.7476ZM15.1242 34.899C14.8846 34.6453 14.7498 34.3318 14.7498 33.9885V19.8677C14.7498 19.1661 15.3338 18.584 16.0376 18.584H30.2034C30.9072 18.584 31.4912 19.1661 31.4912 19.8677V24.5398C31.4912 24.5547 31.4912 24.5547 31.4912 24.5696C31.4912 24.5846 31.4912 24.5846 31.4912 24.5995V34.0034C31.4912 34.705 30.9072 35.2871 30.2034 35.2871H16.0376C15.6932 35.2722 15.3638 35.1378 15.1242 34.899ZM10.9913 84.292V62.6779C10.9913 61.9614 11.5753 61.3942 12.2791 61.3942H23.0756C23.0906 61.3942 23.1055 61.4091 23.1205 61.4091C23.1355 61.4091 23.1505 61.3942 23.1654 61.3942H33.947C34.6508 61.3942 35.2348 61.9764 35.2348 62.6779V84.2771C35.2348 84.9936 34.6508 85.5608 33.947 85.5608H12.2791C11.5753 85.5757 10.9913 84.9936 10.9913 84.292ZM30.2034 131.028H16.0376C15.6932 131.028 15.3638 130.894 15.1242 130.655C14.8846 130.416 14.7498 130.088 14.7498 129.744V115.624C14.7498 114.922 15.3338 114.34 16.0376 114.34H30.2034C30.9072 114.34 31.4912 114.922 31.4912 115.624V126.401C31.4912 126.416 31.4912 126.416 31.4912 126.431C31.4912 126.445 31.4912 126.446 31.4912 126.46V129.759C31.4912 130.446 30.9222 131.028 30.2034 131.028ZM83.1976 138.506H61.5297C60.826 138.506 60.242 137.924 60.242 137.223V115.609C60.242 114.907 60.826 114.325 61.5297 114.325H83.2126C83.9164 114.325 84.5004 114.907 84.5004 115.609V126.416V137.208C84.4854 137.924 83.9164 138.506 83.1976 138.506ZM133.197 115.609V129.729C133.197 130.431 132.613 131.013 131.909 131.013H117.743C117.04 131.013 116.456 130.431 116.456 129.729V126.431V126.416V126.401V115.624C116.456 114.922 117.04 114.34 117.743 114.34H131.909C132.613 114.325 133.197 114.907 133.197 115.609ZM123.464 111.638H117.729C115.527 111.638 113.745 113.414 113.745 115.609V125.072H87.1808V115.609C87.1808 113.414 85.3989 111.638 83.1976 111.638H61.5297C59.3285 111.638 57.5466 113.414 57.5466 115.609V125.072H34.1866V115.609C34.1866 113.414 32.4046 111.638 30.2034 111.638H24.4682V88.2626H33.947C36.1482 88.2626 37.9302 86.4863 37.9302 84.292V62.6779C37.9302 60.4837 36.1482 58.7074 33.947 58.7074H24.4682V37.959H30.2034C32.4046 37.959 34.1866 36.1827 34.1866 33.9885V25.8981H57.5316V35.3468C57.5316 37.5411 59.3135 39.3174 61.5148 39.3174H83.1976C85.3989 39.3174 87.1808 37.5411 87.1808 35.3468V25.8981H113.745V33.9885C113.745 36.1827 115.527 37.959 117.729 37.959H123.464V58.7074H113.97C111.769 58.7074 109.987 60.4837 109.987 62.6779V84.2771C109.987 86.4714 111.769 88.2477 113.97 88.2477H123.464V111.638ZM136.956 84.292C136.956 85.0085 136.372 85.5757 135.668 85.5757H113.985C113.281 85.5757 112.697 84.9936 112.697 84.292V62.6779C112.697 61.9614 113.281 61.3942 113.985 61.3942H124.766C124.781 61.3942 124.796 61.4091 124.811 61.4091C124.826 61.4091 124.841 61.3942 124.856 61.3942H135.653C136.357 61.3942 136.941 61.9764 136.941 62.6779V84.292H136.956Z" fill="#231F20"/>
<path d="M96.1655 65.0961H95.8959C95.3868 57.4834 92.9011 51.5723 88.4686 47.557C81.8799 41.5863 73.4943 42.0341 73.2098 42.049C55.4202 42.049 51.3622 60.1702 50.5985 65.0961H50.2541C48.4871 65.0961 47.0496 66.5291 47.0496 68.2904V101.652C47.0496 103.413 48.4871 104.846 50.2541 104.846H96.1804C97.9474 104.846 99.385 103.413 99.385 101.652V68.2904C99.37 66.5291 97.9324 65.0961 96.1655 65.0961ZM73.2846 44.7209C73.3595 44.7209 80.9365 44.3477 86.6717 49.5572C90.5201 53.0501 92.7064 58.2894 93.1856 65.0812H89.4869C89.0526 59.1253 87.1359 54.6025 83.7367 51.6768C79.1845 47.766 73.644 48.1242 72.8654 48.1989C60.2719 48.2436 57.1423 61.021 56.4535 65.0812H53.3088C54.0725 60.1851 57.7562 44.7358 73.2846 44.7209ZM86.7915 65.0961H59.1788C59.8377 61.2002 62.563 50.9006 72.9402 50.9006C72.9852 50.9006 73.0451 50.9006 73.09 50.8857C73.1349 50.8857 78.0615 50.3633 81.9847 53.7218C84.785 56.14 86.4022 59.9612 86.7915 65.0961ZM96.6746 101.652C96.6746 101.936 96.45 102.16 96.1655 102.16H50.2541C49.9696 102.16 49.7449 101.936 49.7449 101.652V68.2904C49.7449 68.0068 49.9696 67.7829 50.2541 67.7829H96.1804C96.465 67.7829 96.6896 68.0068 96.6896 68.2904V101.652H96.6746Z" fill="#231F20"/>
<path d="M72.9851 71.2012C68.942 71.2012 65.6626 74.4702 65.6626 78.5004C65.6626 80.6499 66.621 82.6799 68.2532 84.0383V94.2632C68.2532 96.6664 70.2148 98.6218 72.6257 98.6218H73.3295C75.7403 98.6218 77.702 96.6664 77.702 94.2632V84.0383C79.3192 82.6799 80.2626 80.6648 80.2626 78.5004C80.2776 74.4702 77.0132 71.2012 72.9851 71.2012ZM75.5906 82.2769C75.1264 82.5904 74.9168 83.1277 75.0216 83.6651V94.2781C75.0216 95.2036 74.2729 95.9499 73.3444 95.9499H72.6406C71.7122 95.9499 70.9635 95.2036 70.9635 94.2781V83.6651C71.0683 83.1427 70.8587 82.5904 70.3945 82.2769C69.1217 81.4261 68.373 80.0229 68.373 78.5004C68.373 75.9628 70.4544 73.888 73 73.888C75.5307 73.888 77.5972 75.9628 77.5972 78.5004C77.5822 80.0229 76.8484 81.441 75.5906 82.2769Z" fill="#231F20"/>
</svg>
