<svg width="149" height="159" viewBox="0 0 149 159" fill="none" xmlns="http://www.w3.org/2000/svg">
<path d="M45.1173 81.6279C38.417 81.6279 32.9524 76.1641 32.9524 69.4647V58.7842C32.9524 52.0848 38.417 46.6484 45.1173 46.6484H105.475C112.176 46.6484 117.613 52.1123 117.613 58.8116V69.4922C117.613 76.1915 112.148 81.6279 105.475 81.6279H45.1173ZM105.475 50.9042H45.1173C40.7511 50.9042 37.2088 54.4461 37.2088 58.8116V69.4922C37.2088 73.8577 40.7511 77.3996 45.1173 77.3996H105.475C109.841 77.3996 113.384 73.8577 113.384 69.4922V58.8116C113.356 54.4461 109.814 50.9042 105.475 50.9042Z" fill="black"/>
<path d="M104.487 66.2798H82.1064C80.9256 66.2798 79.9919 65.3188 79.9919 64.1657C79.9919 63.0125 80.9531 62.0515 82.1064 62.0515H104.487C105.667 62.0515 106.601 63.0125 106.601 64.1657C106.601 65.3188 105.667 66.2798 104.487 66.2798Z" fill="black"/>
<path d="M49.7625 64.4619C49.9407 62.6357 48.6045 61.0108 46.778 60.8327C44.9516 60.6545 43.3265 61.9905 43.1483 63.8167C42.9701 65.6429 44.3063 67.2677 46.1328 67.4459C47.9592 67.624 49.5843 66.288 49.7625 64.4619Z" fill="black"/>
<path d="M61.479 64.4516C61.6572 62.6254 60.3211 61.0006 58.4946 60.8224C56.6681 60.6442 55.0431 61.9802 54.8649 63.8064C54.6867 65.6326 56.0229 67.2575 57.8493 67.4356C59.6758 67.6138 61.3009 66.2778 61.479 64.4516Z" fill="black"/>
<path d="M72.5206 64.4538C72.6987 62.6276 71.3626 61.0028 69.5361 60.8246C67.7096 60.6464 66.0846 61.9824 65.9064 63.8086C65.7282 65.6348 67.0644 67.2597 68.8908 67.4378C70.7173 67.616 72.3424 66.28 72.5206 64.4538Z" fill="black"/>
<path d="M105.475 112.352H45.1173C38.417 112.352 32.9524 106.888 32.9524 100.216V89.5354C32.9524 82.836 38.417 77.3997 45.1173 77.3997H105.475C112.176 77.3997 117.613 82.8635 117.613 89.5628V100.243C117.613 106.888 112.176 112.352 105.475 112.352ZM105.475 81.6279H45.1173C40.7511 81.6279 37.2088 85.1698 37.2088 89.5354V100.216C37.2088 104.581 40.7511 108.123 45.1173 108.123H105.475C109.841 108.123 113.384 104.581 113.384 100.216V89.5354C113.356 85.1698 109.814 81.6279 105.475 81.6279Z" fill="black"/>
<path d="M104.487 97.0034H82.1064C80.9256 97.0034 79.9919 96.0425 79.9919 94.8893C79.9919 93.7361 80.9531 92.7751 82.1064 92.7751H104.487C105.667 92.7751 106.601 93.7361 106.601 94.8893C106.601 96.0425 105.667 97.0034 104.487 97.0034Z" fill="black"/>
<path d="M49.7679 95.1809C49.946 93.3547 48.6099 91.7298 46.7834 91.5517C44.957 91.3735 43.3319 92.7095 43.1537 94.5357C42.9755 96.3619 44.3117 97.9867 46.1381 98.1649C47.9646 98.343 49.5897 97.007 49.7679 95.1809Z" fill="black"/>
<path d="M61.4844 95.1708C61.6626 93.3446 60.3264 91.7198 58.5 91.5416C56.6735 91.3635 55.0484 92.6995 54.8702 94.5257C54.6921 96.3519 56.0282 97.9767 57.8547 98.1549C59.6811 98.333 61.3062 96.997 61.4844 95.1708Z" fill="black"/>
<path d="M72.5254 95.1728C72.7036 93.3466 71.3674 91.7218 69.541 91.5436C67.7145 91.3654 66.0894 92.7014 65.9113 94.5276C65.7331 96.3538 67.0693 97.9787 68.8957 98.1568C70.7222 98.335 72.3472 96.999 72.5254 95.1728Z" fill="black"/>
<path d="M21.7487 34.2657C16.696 34.2657 12.5769 30.1472 12.5769 25.0952C12.5769 20.0433 16.6685 15.9248 21.7487 15.9248C26.8014 15.9248 30.9204 20.0433 30.9204 25.0952C30.9204 30.1472 26.8014 34.2657 21.7487 34.2657ZM21.7487 20.1805C19.0301 20.1805 16.8333 22.3771 16.8333 25.0952C16.8333 27.8134 19.0301 30.0099 21.7487 30.0099C24.4672 30.0099 26.6641 27.8134 26.6641 25.0952C26.6641 22.3771 24.4672 20.1805 21.7487 20.1805Z" fill="black"/>
<path d="M56.8157 43.3812C55.6349 43.3812 54.7012 42.4202 54.7012 41.267V29.4059C54.7012 27.786 54.2893 27.2643 54.1795 27.2094L28.8061 27.2368C27.6253 27.2368 26.6917 26.2759 26.6917 25.1227C26.6917 23.9695 27.6528 23.0085 28.8061 23.0085H54.4266C55.9919 23.0085 58.9576 24.3539 58.9576 29.4333V41.2945C58.9301 42.4202 57.9965 43.3812 56.8157 43.3812Z" fill="black"/>
<path d="M128.844 34.2657C123.791 34.2657 119.672 30.1472 119.672 25.0952C119.672 20.0433 123.791 15.9248 128.844 15.9248C133.897 15.9248 138.016 20.0433 138.016 25.0952C138.016 30.1472 133.897 34.2657 128.844 34.2657ZM128.844 20.1805C126.126 20.1805 123.929 22.3771 123.929 25.0952C123.929 27.8134 126.126 30.0099 128.844 30.0099C131.563 30.0099 133.76 27.8134 133.76 25.0952C133.76 22.3771 131.563 20.1805 128.844 20.1805Z" fill="black"/>
<path d="M93.7773 43.3813C92.5965 43.3813 91.6628 42.4203 91.6628 41.2672V29.406C91.6628 24.3266 94.6286 22.9812 96.1938 22.9812H121.814C122.995 22.9812 123.929 23.9422 123.929 25.0953C123.929 26.2485 122.968 27.2095 121.814 27.2095H96.1938C96.3311 27.2369 95.9192 27.7586 95.9192 29.3785V41.2397C95.8917 42.4203 94.9306 43.3813 93.7773 43.3813Z" fill="black"/>
<path d="M21.7487 143.075C16.696 143.075 12.5769 138.957 12.5769 133.905C12.5769 128.853 16.696 124.735 21.7487 124.735C26.8014 124.735 30.9204 128.853 30.9204 133.905C30.9204 138.957 26.8014 143.075 21.7487 143.075ZM21.7487 128.99C19.0301 128.99 16.8333 131.187 16.8333 133.905C16.8333 136.623 19.0301 138.82 21.7487 138.82C24.4672 138.82 26.6641 136.623 26.6641 133.905C26.6641 131.187 24.4672 128.99 21.7487 128.99Z" fill="black"/>
<path d="M54.399 136.047H28.7785C27.5977 136.047 26.6641 135.086 26.6641 133.932C26.6641 132.779 27.6252 131.791 28.7785 131.791H54.399C54.2617 131.763 54.6736 131.242 54.6736 129.622V117.761C54.6736 116.58 55.6348 115.646 56.7881 115.646C57.9414 115.646 58.9025 116.607 58.9025 117.761V129.622C58.93 134.701 55.9643 136.047 54.399 136.047Z" fill="black"/>
<path d="M128.844 143.075C123.791 143.075 119.672 138.957 119.672 133.905C119.672 128.853 123.791 124.735 128.844 124.735C133.897 124.735 138.016 128.853 138.016 133.905C138.016 138.957 133.897 143.075 128.844 143.075ZM128.844 128.99C126.126 128.99 123.929 131.187 123.929 133.905C123.929 136.623 126.126 138.82 128.844 138.82C131.563 138.82 133.76 136.623 133.76 133.905C133.76 131.187 131.563 128.99 128.844 128.99Z" fill="black"/>
<path d="M121.787 136.047H96.1662C94.601 136.047 91.6353 134.701 91.6353 129.622V117.761C91.6353 116.58 92.5964 115.646 93.7497 115.646C94.903 115.646 95.8642 116.607 95.8642 117.761V129.622C95.8642 131.242 96.2761 131.763 96.3859 131.818L121.787 131.791C122.968 131.791 123.901 132.752 123.901 133.905C123.901 135.058 122.968 136.047 121.787 136.047Z" fill="black"/>
</svg>
