<svg width="157" height="150" viewBox="0 0 157 150" fill="none" xmlns="http://www.w3.org/2000/svg">
<path d="M39.2128 100.153C37.6344 100.153 36.1383 99.529 35.0202 98.4118L33.7214 97.1139C31.4031 94.7973 31.4031 91.035 33.7214 88.7185L39.6239 82.8204C41.9421 80.5038 45.7072 80.5038 48.0255 82.8204L49.3244 84.1183C51.6426 86.4348 51.6426 90.1971 49.3244 92.5137L43.4054 98.4118C42.2874 99.529 40.7912 100.153 39.2128 100.153ZM43.8 84.0526C43.0437 84.0526 42.2709 84.3483 41.6955 84.9233L35.793 90.8214C34.6256 91.9879 34.6256 93.8609 35.793 95.0274L37.0919 96.3253C38.2263 97.4589 40.1829 97.4589 41.3009 96.3253L47.2034 90.4271C48.3707 89.2607 48.3707 87.3877 47.2034 86.2212L45.9045 84.9233C45.3291 84.3318 44.5728 84.0526 43.8 84.0526Z" fill="black"/>
<path d="M63.9245 121.051C62.4118 121.051 60.8828 120.476 59.7319 119.31L58.433 118.012C57.315 116.895 56.6902 115.4 56.6902 113.823C56.6902 112.245 57.315 110.75 58.433 109.633L64.319 103.735C66.6373 101.418 70.4024 101.418 72.7207 103.735L74.0195 105.033C75.1376 106.15 75.7623 107.645 75.7623 109.222C75.7623 110.8 75.1376 112.295 74.0195 113.412L68.117 119.31C66.9661 120.46 65.4535 121.051 63.9245 121.051ZM68.5281 104.951C67.7718 104.951 66.999 105.246 66.4236 105.821L60.5211 111.72C59.962 112.278 59.6497 113.034 59.6497 113.823C59.6497 114.611 59.962 115.367 60.5211 115.926L61.8199 117.223C62.9873 118.39 64.8781 118.39 66.029 117.223L71.9315 111.325C72.4905 110.767 72.8029 110.011 72.8029 109.222C72.8029 108.434 72.4905 107.678 71.9315 107.119L70.6326 105.821C70.0407 105.246 69.2844 104.951 68.5281 104.951Z" fill="black"/>
<path d="M46.102 108.467C44.5236 108.467 43.0274 107.842 41.9094 106.725L40.6105 105.427C38.2923 103.111 38.2923 99.3483 40.6105 97.0318L50.8865 86.7634C53.2047 84.4469 56.9698 84.4469 59.2881 86.7634L60.5869 88.0613C61.705 89.1785 62.3298 90.6736 62.3298 92.2508C62.3298 93.828 61.705 95.3231 60.5869 96.4403L50.311 106.709C49.1765 107.842 47.6804 108.467 46.102 108.467ZM55.0626 87.9956C54.3063 87.9956 53.5335 88.2913 52.9581 88.8664L42.6821 99.1347C41.5148 100.301 41.5148 102.174 42.6821 103.341L43.981 104.639C45.1155 105.772 47.072 105.756 48.1901 104.639L58.466 94.3702C59.025 93.8116 59.3374 93.0558 59.3374 92.2672C59.3374 91.4786 59.025 90.7229 58.466 90.1643L57.1671 88.8664C56.5917 88.2749 55.8354 87.9956 55.0626 87.9956Z" fill="black"/>
<path d="M55.2104 114.562C53.6978 114.562 52.1687 113.987 51.0178 112.82L49.7189 111.522C47.4007 109.206 47.4007 105.444 49.7189 103.127L57.841 95.0109C60.0771 92.7765 63.9901 92.7765 66.2426 95.0109L67.5415 96.3089C69.8598 98.6254 69.8598 102.388 67.5415 104.704L59.4194 112.82C58.2521 113.97 56.7394 114.562 55.2104 114.562ZM62.0336 96.2431C61.2444 96.2431 60.4881 96.5553 59.9291 97.1139L51.807 105.23C50.6396 106.396 50.6396 108.269 51.807 109.436L53.1059 110.734C54.2732 111.9 56.164 111.9 57.3149 110.734L65.437 102.618C66.6043 101.451 66.6043 99.5619 65.437 98.4118L64.1381 97.1139C63.5627 96.5389 62.8228 96.2431 62.0336 96.2431Z" fill="black"/>
<path d="M114.301 85.7448C114.022 85.7448 113.726 85.6626 113.479 85.4984L72.5562 58.4556L64.6972 66.9003C64.3848 67.1961 58.433 72.7656 52.5469 72.4042C50.1136 72.2399 48.0584 71.1227 46.4142 69.069C45.9703 68.5104 45.9867 67.7218 46.4471 67.1961L63.9409 46.7086C64.5492 45.8708 68.6925 40.7612 79.8563 42.3877C90.757 43.9649 112.361 45.4764 112.575 45.4929C113.019 45.5257 113.43 45.7557 113.676 46.1172L133.373 73.9649C133.62 74.31 133.702 74.7536 133.604 75.1643C133.505 75.575 133.242 75.92 132.864 76.1336L114.992 85.5969C114.778 85.6955 114.531 85.7448 114.301 85.7448ZM72.3261 55.0383C72.6056 55.0383 72.8851 55.1205 73.1481 55.2848L114.383 82.5411L129.986 74.2771L111.671 48.3844C107.84 48.1051 89.3266 46.7415 79.4288 45.2957C69.5803 43.8664 66.4729 48.2201 66.3413 48.4173C66.3085 48.4666 66.2591 48.5159 66.2262 48.5652L49.5546 68.0997C50.4753 68.9211 51.5275 69.3647 52.7442 69.4469C57.2985 69.7262 62.5434 64.8631 62.5927 64.8138L71.2574 55.5148C71.5369 55.2026 71.9315 55.0383 72.3261 55.0383Z" fill="black"/>
<path d="M87.8962 122.218C86.0383 122.218 84.46 121.364 83.7037 120.723L72.4248 113.215C71.7507 112.771 71.5534 111.851 72.0137 111.161C72.4577 110.487 73.3784 110.29 74.0689 110.75L85.43 118.291C85.4793 118.324 85.5451 118.373 85.5944 118.406C86.0219 118.768 88.3237 120.476 90.8228 117.667C91.1681 117.289 92.0888 116.057 92.0066 115.071C91.9902 114.825 91.908 114.447 91.3818 114.036C88.5703 111.769 80.2181 105.559 80.1358 105.493C79.4782 105 79.3467 104.08 79.8399 103.423C80.3331 102.766 81.2539 102.634 81.9115 103.127C82.2568 103.39 90.3954 109.436 93.2562 111.736C94.292 112.574 94.9003 113.658 94.9825 114.874C95.1469 117.322 93.2397 119.425 93.026 119.655C91.2832 121.61 89.4911 122.218 87.8962 122.218Z" fill="black"/>
<path d="M97.1528 116.435C95.1798 116.435 93.4042 115.695 92.3519 114.989C91.6778 114.529 91.4969 113.609 91.9573 112.935C92.4177 112.262 93.322 112.081 94.0125 112.525C94.3906 112.771 97.8105 114.89 100.507 111.884C102.825 109.304 101.937 107.744 100.622 106.446C99.8821 105.756 91.2503 99.3483 85.9726 95.4545C85.3149 94.9781 85.167 94.0416 85.6602 93.3844C86.137 92.7273 87.0742 92.5794 87.7318 93.0723C91.0366 95.5038 101.872 103.521 102.644 104.294C106.623 108.237 104.387 111.966 102.694 113.855C100.984 115.794 98.9778 116.435 97.1528 116.435Z" fill="black"/>
<path d="M105.094 108.499C103.861 108.499 102.809 108.187 102.118 107.859C101.395 107.497 101.099 106.61 101.46 105.871C101.822 105.148 102.71 104.852 103.433 105.214C103.746 105.361 106.393 106.511 108.76 103.669C110.766 101.254 110.24 99.759 109.994 99.299L89.1129 84.184C88.4552 83.7076 88.3073 82.7875 88.7841 82.1139C89.2609 81.4567 90.1816 81.3089 90.8557 81.7853L111.95 97.0646C112.049 97.1303 112.147 97.2289 112.23 97.3275C112.345 97.4589 115.008 100.794 111.046 105.559C109.155 107.826 106.935 108.499 105.094 108.499Z" fill="black"/>
<path d="M115.715 101.156C113.43 101.156 111.407 100.285 110.224 99.4633C109.55 99.0033 109.385 98.0832 109.846 97.4096C110.306 96.736 111.227 96.5717 111.901 97.0318C112.378 97.3603 116.537 99.989 120.023 96.2432C120.401 95.6681 122.177 92.4644 117.376 88.7678C111.128 83.9376 104.551 79.6002 104.502 79.5509C103.811 79.1073 103.631 78.1873 104.091 77.4973C104.535 76.8236 105.456 76.6265 106.146 77.0865C106.212 77.1358 112.854 81.5389 119.201 86.4184C126.632 92.1522 122.44 97.9847 122.39 98.0504C120.253 100.383 117.869 101.156 115.715 101.156Z" fill="black"/>
<path d="M34.3462 91.8565C33.968 91.8565 33.5899 91.7086 33.2939 91.4293L24.5799 82.7218C24.1031 82.2453 24.0045 81.4896 24.3497 80.9145L43.9151 48.2366C44.1946 47.7601 44.7208 47.4972 45.2798 47.5137L63.0037 48.6637C63.8258 48.713 64.4341 49.4195 64.3848 50.2409C64.3355 51.0624 63.6121 51.6703 62.8064 51.621L45.9703 50.5202L27.4901 81.4403L35.382 89.3264C35.9574 89.9014 35.9574 90.8379 35.382 91.4129C35.1025 91.7086 34.7243 91.8565 34.3462 91.8565Z" fill="black"/>
<path d="M78.4917 138.729C45.1648 138.729 18.0527 111.637 18.0527 78.3352C18.0527 77.5137 18.7104 76.8565 19.5325 76.8565C20.3545 76.8565 21.0122 77.5137 21.0122 78.3352C21.0122 110.011 46.7925 135.772 78.4917 135.772C110.191 135.772 135.971 110.011 135.971 78.3352C135.971 46.6594 110.191 20.8981 78.4917 20.8981C77.6697 20.8981 77.012 20.241 77.012 19.4195C77.012 18.598 77.6697 17.9409 78.4917 17.9409C111.819 17.9409 138.931 45.0329 138.931 78.3352C138.931 111.637 111.819 138.729 78.4917 138.729Z" fill="black"/>
<path d="M83.3585 28.4721C82.8653 28.4721 82.3885 28.2256 82.109 27.782L77.2423 20.1917C76.9135 19.6824 76.9299 19.0416 77.2752 18.5487L82.1419 11.5663C82.6022 10.8927 83.523 10.7284 84.1971 11.1884C84.8712 11.6484 85.0356 12.5685 84.5752 13.2421L80.2675 19.4195L84.5917 26.172C85.0356 26.862 84.8383 27.7656 84.1477 28.2092C83.9176 28.4063 83.6381 28.4721 83.3585 28.4721Z" fill="black"/>
</svg>
