<svg width="152" height="156" viewBox="0 0 152 156" fill="none" xmlns="http://www.w3.org/2000/svg">
<path d="M69.9623 58.8355C41.3947 58.8355 19.0059 48.3351 19.0059 34.9387C19.0059 21.5424 41.3947 11.0184 69.9623 11.0184C98.5298 11.0184 120.919 21.5189 120.919 34.9152C120.919 48.3115 98.5298 58.8355 69.9623 58.8355ZM69.9623 14.6677C44.3079 14.6677 22.6473 23.9439 22.6473 34.9152C22.6473 45.8865 44.3079 55.1627 69.9623 55.1627C95.6167 55.1627 117.277 45.8865 117.277 34.9152C117.277 23.9439 95.6167 14.6677 69.9623 14.6677Z" fill="black"/>
<path d="M69.4925 87.7C62.9849 87.7 55.1852 87.0878 46.7982 85.1573C46.1169 85.0631 26.4767 82.0024 20.0161 69.2182C19.8987 68.9357 19.0999 67.0993 19.0059 63.7797C18.9355 60.719 19.0059 49.371 19.0059 48.9001C19.0059 47.9113 19.7812 47.1343 20.7679 47.0872C21.8486 47.0637 22.5534 47.77 22.6474 48.7353C22.6708 48.9943 24.5503 61.6372 54.7154 66.2753C54.9033 66.2988 75.1778 69.2182 93.2439 64.6979C94.1132 64.486 95.0059 64.9333 95.3583 65.7573C95.7107 66.5814 95.4053 67.5466 94.6535 68.0175C94.4186 68.1588 88.7098 72.067 89.861 83.8624C89.9549 84.757 89.3676 85.6046 88.4749 85.8165C88.005 85.9342 80.5812 87.7 69.4925 87.7ZM22.6239 56.2457C22.6239 59.2593 22.6239 62.3435 22.6474 63.6855C22.7178 66.2753 23.3052 67.6644 23.3052 67.6644C28.873 78.6592 47.2916 81.5551 47.4795 81.5786C65.7806 85.7694 81.3565 83.4621 86.1256 82.5675C85.7967 76.399 87.2297 72.1376 88.8273 69.3595C71.7008 72.4202 54.9503 69.9952 54.175 69.8775C35.498 67.0051 26.7351 61.0721 22.6239 56.2457Z" fill="black"/>
<path d="M65.3107 116.659C65.2872 116.659 65.2637 116.659 65.2402 116.659C58.9675 116.4 52.7654 115.576 46.8216 114.234C46.1403 114.139 26.5002 111.079 20.0396 98.2946C19.9221 98.0121 19.1233 96.1756 19.0294 92.856C18.9589 89.7953 19.0294 78.4473 19.0294 77.9764C19.0294 76.9876 19.8046 76.2107 20.7913 76.1636C20.8148 76.1636 20.8383 76.1636 20.8618 76.1636C21.8015 76.1636 22.6003 76.8934 22.6708 77.8352C22.6708 77.9294 24.4093 90.69 54.7388 95.3516C54.7858 95.3516 60.3067 96.1521 68.0828 96.2934C68.7172 96.2934 69.3045 96.6465 69.6334 97.2116C69.9623 97.7766 69.9623 98.4594 69.6334 99.0009L68.5057 101.026C67.1666 103.309 67.1196 105.687 67.1196 105.711V114.869C67.1196 115.364 66.9082 115.835 66.5558 116.188C66.2269 116.47 65.7805 116.659 65.3107 116.659ZM22.6238 85.2985C22.6238 88.3121 22.6238 91.3963 22.6473 92.7383C22.7178 95.3281 23.3051 96.7172 23.3051 96.7172C28.873 107.712 47.2915 110.608 47.4794 110.631C52.7419 111.832 58.0748 112.586 63.4782 112.915V105.664C63.4782 105.546 63.5017 102.744 64.9818 99.8249C58.6152 99.5659 54.3864 98.9538 54.175 98.9303C35.498 96.0579 26.7351 90.1249 22.6238 85.2985Z" fill="black"/>
<path d="M115.562 102.368C114.552 102.368 113.753 101.544 113.753 100.555V86.923C113.753 84.9689 113.002 83.1325 111.616 81.7434C110.253 80.3779 108.421 79.6009 106.471 79.6009C102.453 79.6009 99.1878 82.8735 99.1878 86.8994V100.531C99.1878 101.544 98.3655 102.344 97.3788 102.344C96.3921 102.344 95.5698 101.52 95.5698 100.531V86.8994C95.5698 80.8487 100.456 75.9517 106.494 75.9517C109.407 75.9517 112.156 77.0818 114.223 79.1536C116.291 81.2254 117.442 83.98 117.442 86.8994V100.531C117.371 101.544 116.573 102.368 115.562 102.368Z" fill="black"/>
<path d="M106.447 143.357C100.433 143.357 95.5229 138.46 95.5229 132.409V118.754C95.5229 117.742 96.3452 116.941 97.3319 116.941C98.3186 116.941 99.1409 117.765 99.1409 118.754V132.409C99.1409 136.435 102.406 139.708 106.424 139.708C110.441 139.708 113.707 136.435 113.707 132.409V118.754C113.707 117.742 114.529 116.941 115.516 116.941C116.502 116.941 117.324 117.765 117.324 118.754V132.409C117.371 138.46 112.485 143.357 106.447 143.357Z" fill="black"/>
<path d="M129.165 120.614H115.562C114.552 120.614 113.753 119.79 113.753 118.801C113.753 117.812 114.576 116.988 115.562 116.988H129.165C131.091 116.988 132.947 116.235 134.357 114.846C135.719 113.48 136.471 111.644 136.471 109.69C136.471 105.664 133.206 102.391 129.188 102.391H115.586C114.576 102.391 113.777 101.567 113.777 100.578C113.777 99.5894 114.599 98.7654 115.586 98.7654H129.188C135.226 98.7654 140.113 103.686 140.113 109.713C140.113 112.609 138.985 115.364 136.918 117.435C134.78 119.484 132.055 120.614 129.165 120.614Z" fill="black"/>
<path d="M97.3554 120.614H83.7529C77.7152 120.614 72.8286 115.717 72.8286 109.666C72.8286 103.615 77.7387 98.7184 83.7529 98.7184H97.3554C98.3656 98.7184 99.1643 99.5424 99.1643 100.531C99.1643 101.52 98.3421 102.344 97.3554 102.344H83.7529C79.7356 102.344 76.4465 105.617 76.4465 109.643C76.4465 113.669 79.7121 116.941 83.7529 116.941H97.3554C98.3656 116.941 99.1643 117.765 99.1643 118.754C99.1643 119.743 98.3656 120.614 97.3554 120.614Z" fill="black"/>
</svg>
