<svg width="150" height="144" viewBox="0 0 150 144" fill="none" xmlns="http://www.w3.org/2000/svg">
<path d="M75.0092 14.9085C43.6007 14.9085 18.0518 40.4036 18.0518 71.7458C18.0518 103.088 43.6007 128.583 75.0092 128.583C106.418 128.583 131.967 103.088 131.967 71.7458C131.967 58.8167 127.508 46.1781 119.392 36.1362L121.594 34.3748C130.092 44.9251 134.787 58.1993 134.787 71.7458C134.787 104.632 107.964 131.398 75.0092 131.398C42.054 131.398 15.2312 104.632 15.2312 71.7458C15.2312 38.8601 42.054 12.0939 75.0092 12.0939" fill="black"/>
<path d="M75.009 12.0939C89.2029 12.0939 102.96 17.142 113.751 26.3123L111.931 28.455C101.65 19.7206 88.5478 14.9085 75.0272 14.9085" fill="black"/>
<path d="M74.0447 82.6774C79.2406 82.6774 83.4527 78.4742 83.4527 73.2893C83.4527 68.1043 79.2406 63.9011 74.0447 63.9011C68.8488 63.9011 64.6367 68.1043 64.6367 73.2893C64.6367 78.4742 68.8488 82.6774 74.0447 82.6774Z" fill="black"/>
<path d="M75.9372 63.9011L127.363 20.9553L83.3253 71.7457C83.3071 71.7457 73.2441 73.3256 75.9372 63.9011Z" fill="black"/>
</svg>
