<svg width="183" height="175" viewBox="0 0 183 175" fill="none" xmlns="http://www.w3.org/2000/svg">
<path d="M109.141 122.212H70.7739C69.8156 122.212 69.0491 121.446 69.0491 120.487C69.0491 119.529 69.8156 118.762 70.7739 118.762H109.141C110.923 118.762 112.245 118.264 113.223 117.248C115.158 115.216 114.986 111.709 114.986 111.67C114.986 110.808 114.89 110.06 114.698 109.389C114.641 109.217 114.603 109.006 114.603 108.814C114.603 107.856 115.369 107.089 116.327 107.089C117.094 107.089 117.784 107.588 117.995 108.335C118.282 109.351 118.436 110.424 118.436 111.574C118.436 111.67 118.704 116.462 115.733 119.606C114.104 121.331 111.881 122.212 109.141 122.212Z" fill="black"/>
<path d="M51.322 152.21C50.8812 152.21 50.4596 152.037 50.1338 151.731L16.3855 119.855C16.0597 119.529 15.8489 119.107 15.8489 118.647C15.8297 118.187 16.0022 117.746 16.328 117.401L32.2535 100.917C32.2535 100.917 33.6142 99.2306 35.9139 97.3905C38.7885 95.0712 43.388 92.2919 48.9073 92.2919H65.9252C66.0019 92.2727 72.1153 91.7936 80.7392 99.3072C81.5633 99.6523 84.7829 100.936 88.3474 100.936H108.872C108.949 100.936 109.026 100.936 109.102 100.956C109.352 100.994 114.679 101.78 117.171 106.38L130.202 99.1347C130.969 98.2914 133.958 94.9179 135.722 91.8127L136.047 91.2377C137.638 88.4009 140.589 83.149 146.3 80.7722C150.076 79.2004 154.368 79.2004 159.121 80.7722C159.275 80.8297 163.472 82.2098 165.101 85.7366C165.982 87.6534 165.963 89.7426 165.024 91.9852C165.005 92.0619 164.966 92.1194 164.928 92.1769C164.181 93.4803 146.224 124.398 125.143 138.831C124.127 139.904 118.78 145.194 110.214 145.194H63.7596C63.6446 145.194 63.5297 145.175 63.4338 145.156C63.1655 145.099 56.3047 143.949 52.8935 151.232C52.6635 151.731 52.2036 152.095 51.6478 152.191C51.552 152.191 51.437 152.21 51.322 152.21ZM20.0075 118.551L50.9004 147.725C54.7141 141.917 60.8083 141.208 63.9129 141.744H110.214C117.918 141.744 122.652 136.454 122.69 136.397C122.786 136.282 122.901 136.186 123.016 136.109C142.947 122.558 160.731 92.5219 161.881 90.5668C162.398 89.2826 162.417 88.1709 161.977 87.1933C160.999 85.0466 158.067 84.069 158.048 84.0498C154.119 82.7464 150.631 82.7081 147.642 83.954C143.042 85.8708 140.455 90.4518 139.075 92.9244L138.73 93.5378C136.488 97.448 132.713 101.512 132.56 101.684C132.445 101.818 132.291 101.933 132.138 102.01L117.19 110.329C116.232 110.865 114.928 110.29 114.66 109.236C114.622 109.102 114.583 108.968 114.526 108.834C114.526 108.814 114.507 108.795 114.507 108.795C113.204 105.326 109.428 104.502 108.738 104.367H88.3474C83.4222 104.367 79.2252 102.393 79.0527 102.317C78.8994 102.24 78.7845 102.163 78.6503 102.048C71.1571 95.4546 66.0977 95.7229 66.0594 95.7229H48.9073C44.4037 95.7229 40.5325 98.0805 38.0795 100.055C36.0672 101.684 34.8598 103.16 34.8407 103.179L20.0075 118.551Z" fill="black"/>
<path d="M142.793 57.6944H49.8846C41.7397 57.6944 35.1089 51.0624 35.1089 42.9162C35.1089 34.77 41.7397 28.138 49.8846 28.138H142.793C150.938 28.138 157.569 34.77 157.569 42.9162C157.569 51.0624 150.957 57.6944 142.793 57.6944ZM49.8846 31.5882C43.637 31.5882 38.5585 36.6676 38.5585 42.9162C38.5585 49.1648 43.637 54.2442 49.8846 54.2442H142.793C149.041 54.2442 154.119 49.1648 154.119 42.9162C154.119 36.6676 149.041 31.5882 142.793 31.5882H49.8846Z" fill="black"/>
<path d="M142.793 83.8007H49.8846C41.7397 83.8007 35.1089 77.1687 35.1089 69.0225C35.1089 60.8762 41.7397 54.2443 49.8846 54.2443H142.793C150.938 54.2443 157.569 60.8762 157.569 69.0225C157.588 77.1687 150.957 83.8007 142.793 83.8007ZM49.8846 57.6944C43.637 57.6944 38.5585 62.7738 38.5585 69.0225C38.5585 75.2711 43.637 80.3505 49.8846 80.3505H142.793C149.041 80.3505 154.119 75.2711 154.119 69.0225C154.119 62.7738 149.041 57.6944 142.793 57.6944H49.8846Z" fill="black"/>
<path d="M117.458 109.926H116.116C115.407 109.926 114.756 109.485 114.507 108.814C113.203 105.345 109.39 104.502 108.738 104.387H88.3473C83.4221 104.387 79.2251 102.412 79.0527 102.336C78.8993 102.259 78.7844 102.182 78.6502 102.067C71.157 95.4737 66.0976 95.742 66.0593 95.742H48.9072C44.4036 95.742 40.5324 98.0996 38.0794 100.074C37.6002 100.457 36.9678 100.572 36.3929 100.342C35.818 100.131 35.4155 99.6139 35.3005 99.0197C35.1855 98.3105 35.1089 97.5821 35.1089 96.8537V93.4419C35.1089 86.2349 40.9732 80.3696 48.1789 80.3696H144.499C145.476 80.3696 146.434 80.4655 147.354 80.6763C148.274 80.8872 148.868 81.8072 148.657 82.7464C148.447 83.6664 147.527 84.2415 146.588 84.0498C145.917 83.8965 145.227 83.8198 144.499 83.8198H48.1789C42.8704 83.8198 38.5585 88.1325 38.5585 93.4419V95.512C41.299 93.7869 44.8635 92.2919 48.9072 92.2919H65.9251C66.0209 92.2919 72.096 91.7743 80.7391 99.3072C81.5632 99.6522 84.7828 100.936 88.3473 100.936H108.872C108.949 100.936 109.026 100.936 109.102 100.956C109.351 100.994 114.756 101.799 117.228 106.476H117.458C118.416 106.476 119.183 107.243 119.183 108.201C119.183 109.159 118.416 109.926 117.458 109.926Z" fill="black"/>
<path d="M92.4294 67.5849H68.1865V70.46H92.4294V67.5849Z" fill="black"/>
<path d="M118.359 72.626C120.349 72.626 121.962 71.0126 121.962 69.0224C121.962 67.0323 120.349 65.4189 118.359 65.4189C116.369 65.4189 114.756 67.0323 114.756 69.0224C114.756 71.0126 116.369 72.626 118.359 72.626Z" fill="black"/>
<path d="M106.4 72.626C108.39 72.626 110.003 71.0126 110.003 69.0224C110.003 67.0323 108.39 65.4189 106.4 65.4189C104.41 65.4189 102.797 67.0323 102.797 69.0224C102.797 71.0126 104.41 72.626 106.4 72.626Z" fill="black"/>
<path d="M92.4294 92.8286H68.1865V95.7038H92.4294V92.8286Z" fill="black"/>
<path d="M118.359 97.8697C120.349 97.8697 121.962 96.2563 121.962 94.2662C121.962 92.276 120.349 90.6627 118.359 90.6627C116.369 90.6627 114.756 92.276 114.756 94.2662C114.756 96.2563 116.369 97.8697 118.359 97.8697Z" fill="black"/>
<path d="M106.4 97.8697C108.39 97.8697 110.003 96.2563 110.003 94.2662C110.003 92.276 108.39 90.6627 106.4 90.6627C104.41 90.6627 102.797 92.276 102.797 94.2662C102.797 96.2563 104.41 97.8697 106.4 97.8697Z" fill="black"/>
<path d="M92.4294 40.4244H68.1865V43.2996H92.4294V40.4244Z" fill="black"/>
<path d="M118.359 45.4655C120.349 45.4655 121.962 43.8522 121.962 41.862C121.962 39.8718 120.349 38.2585 118.359 38.2585C116.369 38.2585 114.756 39.8718 114.756 41.862C114.756 43.8522 116.369 45.4655 118.359 45.4655Z" fill="black"/>
<path d="M106.4 45.4655C108.39 45.4655 110.003 43.8522 110.003 41.862C110.003 39.8718 108.39 38.2585 106.4 38.2585C104.41 38.2585 102.797 39.8718 102.797 41.862C102.797 43.8522 104.41 45.4655 106.4 45.4655Z" fill="black"/>
</svg>
