<svg width="152" height="103" viewBox="0 0 152 103" fill="none" xmlns="http://www.w3.org/2000/svg">
<path d="M122.778 74.8682H68.165C57.8284 74.8682 49.4148 66.493 49.4148 56.2035V35.6843C49.4148 25.3947 57.8284 17.0195 68.165 17.0195H122.793C133.13 17.0195 141.543 25.3947 141.543 35.6843V56.2035C141.528 66.493 133.115 74.8682 122.778 74.8682ZM68.165 19.7265C59.3158 19.7265 52.1192 26.8903 52.1192 35.6992V56.2185C52.1192 65.0274 59.3158 72.1912 68.165 72.1912H122.793C131.642 72.1912 138.839 65.0274 138.839 56.2185V35.6843C138.839 26.8753 131.642 19.7116 122.793 19.7116H68.165V19.7265Z" fill="black"/>
<path d="M95.464 88.5378C94.7128 88.5378 94.1118 87.9396 94.1118 87.1918V74.3897C94.1118 73.6419 94.7128 73.0437 95.464 73.0437C96.2152 73.0437 96.8162 73.6419 96.8162 74.3897V87.1918C96.8162 87.9246 96.2152 88.5378 95.464 88.5378Z" fill="black"/>
<path d="M108.069 88.5377H82.8588C82.1076 88.5377 81.5066 87.9395 81.5066 87.1917C81.5066 86.4439 82.1076 85.8457 82.8588 85.8457H108.069C108.821 85.8457 109.422 86.4439 109.422 87.1917C109.422 87.9395 108.821 88.5377 108.069 88.5377Z" fill="black"/>
<path d="M82.8586 62.8738C82.498 62.8738 82.1375 62.7242 81.867 62.455L67.2034 46.8861C66.7076 46.3627 66.7076 45.5551 67.2034 45.0466L81.867 29.4777C82.3779 28.9393 83.2342 28.9093 83.7751 29.4178C84.316 29.9263 84.346 30.7788 83.8352 31.3172L70.0279 45.9738L83.8352 60.6304C84.346 61.1688 84.316 62.0213 83.7751 62.5298C83.5347 62.7541 83.2042 62.8738 82.8586 62.8738Z" fill="black"/>
<path d="M108.069 62.8738C107.739 62.8738 107.408 62.7542 107.138 62.5149C106.597 62.0064 106.567 61.1539 107.078 60.6155L120.87 45.9589L107.078 31.3023C106.567 30.7639 106.597 29.9114 107.138 29.4029C107.679 28.8945 108.535 28.9244 109.046 29.4628L123.71 45.0317C124.205 45.5551 124.205 46.3627 123.71 46.8712L109.046 62.4401C108.79 62.7243 108.445 62.8738 108.069 62.8738Z" fill="black"/>
<path d="M89.8751 62.8738C89.7098 62.8738 89.5596 62.8438 89.3943 62.784C88.7032 62.5298 88.3426 61.7521 88.598 61.0492L100.332 29.8964C100.587 29.1935 101.369 28.8495 102.075 29.1038C102.766 29.358 103.126 30.1357 102.871 30.8386L91.1371 61.9914C90.9268 62.5298 90.416 62.8738 89.8751 62.8738Z" fill="black"/>
<path d="M43.8708 33.7101H23.8285C23.0773 33.7101 22.4763 33.1119 22.4763 32.3641C22.4763 31.6163 23.0773 31.0181 23.8285 31.0181H43.8708C44.622 31.0181 45.223 31.6163 45.223 32.3641C45.223 33.1119 44.622 33.7101 43.8708 33.7101Z" fill="black"/>
<path d="M43.8708 61.3632H23.8285C23.0773 61.3632 22.4763 60.7649 22.4763 60.0172C22.4763 59.2694 23.0773 58.6711 23.8285 58.6711H43.8708C44.622 58.6711 45.223 59.2694 45.223 60.0172C45.223 60.7649 44.622 61.3632 43.8708 61.3632Z" fill="black"/>
<path d="M40.6255 47.2152H11.8241C11.0729 47.2152 10.4719 46.617 10.4719 45.8692C10.4719 45.1214 11.0729 44.5232 11.8241 44.5232H40.6105C41.3617 44.5232 41.9627 45.1214 41.9627 45.8692C41.9627 46.617 41.3617 47.2152 40.6255 47.2152Z" fill="black"/>
</svg>
