<svg width="115" height="141" viewBox="0 0 115 141" fill="none" xmlns="http://www.w3.org/2000/svg">
<path d="M50.6575 31.6175C47.9243 31.6175 45.7153 29.461 45.7153 26.7927C45.7153 24.1244 47.9243 21.9678 50.6575 21.9678C53.3907 21.9678 55.5998 24.1244 55.5998 26.7927C55.5998 29.461 53.372 31.6175 50.6575 31.6175ZM50.6575 24.8006C49.5343 24.8006 48.617 25.6961 48.617 26.7927C48.617 27.8892 49.5343 28.7848 50.6575 28.7848C51.7808 28.7848 52.6981 27.8892 52.6981 26.7927C52.6981 25.6961 51.7808 24.8006 50.6575 24.8006Z" fill="black"/>
<path d="M81.6213 118.886H21.4724C15.0699 118.886 9.84692 113.787 9.84692 107.536V30.5028C9.84692 24.2523 15.0699 19.1533 21.4724 19.1533H39.5002C40.3052 19.1533 40.9417 19.793 40.9417 20.5606C40.9417 21.3282 40.2864 21.9678 39.5002 21.9678H21.4724C16.6612 21.9678 12.7486 25.7875 12.7486 30.4845V107.518C12.7486 112.215 16.6612 116.035 21.4724 116.035H81.6213C82.4263 116.035 83.0628 116.675 83.0628 117.442C83.0628 118.21 82.4263 118.886 81.6213 118.886Z" fill="black"/>
<path d="M89.7835 111.594C88.9785 111.594 88.342 110.954 88.342 110.187V30.5028C88.342 25.8059 84.4294 21.9861 79.6182 21.9861H61.5904C60.7854 21.9861 60.1489 21.3465 60.1489 20.5789C60.1489 19.8113 60.8041 19.1716 61.5904 19.1716H79.6182C86.0206 19.1716 91.2437 24.2707 91.2437 30.5211V110.205C91.2249 110.954 90.5697 111.594 89.7835 111.594Z" fill="black"/>
<path d="M61.5716 21.9678C60.7666 21.9678 60.1301 21.3281 60.1301 20.5605C60.1301 15.4067 55.8431 11.2032 50.5452 11.2032C45.2661 11.2032 40.9603 15.3884 40.9603 20.5605C40.9603 21.3464 40.3051 21.9678 39.5189 21.9678C38.7326 21.9678 38.0774 21.3281 38.0774 20.5605C38.0774 13.8532 43.6748 8.38867 50.564 8.38867C57.4344 8.38867 63.0318 13.8532 63.0318 20.5605C63.0131 21.3464 62.3579 21.9678 61.5716 21.9678Z" fill="black"/>
<path d="M69.0599 39.3667H32.2554C31.4505 39.3667 30.814 38.727 30.814 37.9594V20.5606C30.814 19.7747 31.4692 19.1533 32.2554 19.1533C33.0417 19.1533 33.6969 19.7747 33.6969 20.5606V36.5339H67.5997V20.5606C67.5997 19.7747 68.255 19.1533 69.0412 19.1533C69.8275 19.1533 70.4827 19.793 70.4827 20.5606V37.9594C70.5014 38.727 69.8462 39.3667 69.0599 39.3667Z" fill="black"/>
<path d="M52.2114 95.7849H47.7559C46.7076 95.7849 45.8277 95.0173 45.6967 93.9938L45.3223 90.7589C44.1616 90.43 43.0384 89.9731 41.9713 89.4065L39.4066 91.4534C38.6016 92.0931 37.3473 92.02 36.6359 91.3072L33.4909 88.2368C32.7421 87.5241 32.6672 86.3544 33.3224 85.5503L35.4004 83.0099C34.8013 81.9681 34.3333 80.8716 33.9964 79.7202L30.739 79.4095C29.6719 79.2998 28.8669 78.4409 28.8669 77.3991V73.0494C28.8669 72.026 29.6532 71.1487 30.7016 71.039L33.9964 70.6735C34.3146 69.6135 34.7265 68.5718 35.2694 67.6032L33.0042 64.8983C32.3302 64.0941 32.3864 62.9245 33.1352 62.1934L36.299 59.1048C37.0478 58.3737 38.2272 58.3189 39.0509 58.9586L41.7466 61.0603C42.8512 60.4389 44.0305 59.9637 45.2474 59.6165L45.5843 56.4182C45.6967 55.3764 46.5765 54.5906 47.6436 54.5906H52.0991C53.1474 54.5906 54.046 55.3582 54.1583 56.3816L54.5327 59.5982C55.7121 59.9272 56.8354 60.3841 57.9024 60.9506L60.4671 58.9037C61.2908 58.2458 62.489 58.3006 63.2565 59.0499L66.4015 62.1386C67.1504 62.8696 67.2065 64.021 66.5513 64.8252L64.492 67.3473C65.0911 68.389 65.5591 69.4856 65.8961 70.637L69.2096 70.966C70.2767 71.0756 71.0817 71.9346 71.0817 72.9763V77.326C71.0817 78.3495 70.2954 79.2267 69.2471 79.3364L65.8961 79.6836C65.5404 80.8899 65.0349 82.0413 64.3984 83.1378L66.4951 85.6416C67.1691 86.4641 67.1129 87.6337 66.3454 88.3648L63.2003 91.4352C62.5077 92.1297 61.2721 92.221 60.4671 91.5996L57.7152 89.4796C56.723 89.9913 55.6747 90.4117 54.5889 90.7224L54.2519 93.9755C54.1583 95.0173 53.2785 95.7849 52.2114 95.7849ZM48.0742 93.409H51.8744L52.3424 88.8217L53.1849 88.6206C54.6076 88.2917 55.9555 87.7617 57.2098 87.0123L57.9399 86.592L61.7214 89.5162L64.4172 86.8844L61.4219 83.3206L61.8899 82.5895C62.751 81.2737 63.3688 79.8298 63.7432 78.3129L63.9304 77.4905L68.6293 76.9605V73.2505L63.9304 72.7936L63.7245 71.9711C63.3688 70.509 62.7885 69.1201 61.9648 67.8407L61.5155 67.128L64.4359 63.5459L61.7401 60.9141L58.1084 63.82L57.3783 63.3631C56.0678 62.5589 54.6451 61.9924 53.1474 61.6634L52.305 61.4807L51.7808 56.9299H47.9618L47.4938 61.4807L46.6514 61.6817C45.0976 62.0472 43.6374 62.6503 42.3083 63.4728L41.5782 63.9297L37.7779 60.9872L35.0821 63.619L38.2085 67.3473L37.7592 68.0601C37.0104 69.2845 36.4487 70.6187 36.1305 72.0077L35.9433 72.8301L31.2632 73.3418V77.0702L35.9058 77.5271L36.1118 78.3495C36.4675 79.8116 37.0665 81.2006 37.8715 82.4799L38.3208 83.1926L35.4004 86.7748L38.0961 89.4065L41.7279 86.5006L42.458 86.9392C43.7685 87.7251 45.1912 88.2917 46.6889 88.6389L47.5313 88.8217L48.0742 93.409ZM61.4968 89.7538C61.478 89.7538 61.478 89.7538 61.4968 89.7538V89.7538ZM49.8713 86.1534C43.6749 86.1534 38.639 81.2371 38.639 75.1877C38.639 69.1383 43.6749 64.2221 49.8713 64.2221C56.0678 64.2221 61.1036 69.1383 61.1036 75.1877C61.1036 81.2371 56.0491 86.1534 49.8713 86.1534ZM49.8713 66.598C45.0227 66.598 41.0727 70.4542 41.0727 75.1877C41.0727 79.9212 45.0227 83.7775 49.8713 83.7775C54.7199 83.7775 58.67 79.9212 58.67 75.1877C58.67 70.4542 54.7199 66.598 49.8713 66.598Z" fill="black"/>
<path d="M49.8714 104.448C33.3412 104.448 19.8999 91.3255 19.8999 75.1877C19.8999 59.05 33.3412 45.9277 49.8714 45.9277C66.4016 45.9277 79.8429 59.05 79.8429 75.1877C79.8242 91.3073 66.3829 104.448 49.8714 104.448ZM49.8714 48.7605C34.9512 48.7605 22.8016 60.6217 22.8016 75.1877C22.8016 89.7538 34.9512 101.615 49.8714 101.615C64.7916 101.615 76.9412 89.7538 76.9412 75.1877C76.9225 60.6034 64.7916 48.7605 49.8714 48.7605Z" fill="#7D7E81"/>
<path d="M99.799 133.964C98.1328 133.964 96.448 133.342 95.175 132.099L63.8743 101.469C63.3127 100.921 63.3127 100.025 63.8743 99.4767C64.436 98.9284 65.3533 98.9284 65.9149 99.4767L97.2155 130.126C98.6383 131.515 100.941 131.515 102.364 130.126C103.786 128.737 103.786 126.47 102.364 125.081L71.1753 94.7615C70.6137 94.2132 70.6137 93.3176 71.1753 92.7694C71.7369 92.2211 72.6543 92.2211 73.2159 92.7694L104.423 123.071C106.988 125.575 106.988 129.614 104.423 132.118C103.15 133.342 101.484 133.964 99.799 133.964Z" fill="#7D7E81"/>
</svg>
