<svg width="151" height="146" viewBox="0 0 151 146" fill="none" xmlns="http://www.w3.org/2000/svg">
<path d="M95.9915 107.638H29.7585C22.2261 107.638 16.0852 101.503 16.0852 93.979V28.7997C16.0852 21.2755 22.2261 15.1412 29.7585 15.1412H96.01C103.542 15.1412 109.683 21.2755 109.683 28.7997V93.979C109.665 101.503 103.542 107.638 95.9915 107.638ZM29.7585 18.477C24.0628 18.477 19.4247 23.1102 19.4247 28.7997V93.979C19.4247 99.6685 24.0628 104.302 29.7585 104.302H96.01C101.706 104.302 106.344 99.6685 106.344 93.979V28.7997C106.344 23.1102 101.706 18.477 96.01 18.477H29.7585Z" fill="black"/>
<path d="M119.238 130.859H53.0051C45.4727 130.859 39.3318 124.725 39.3318 117.2V52.0211C39.3318 44.4968 45.4727 38.3625 53.0051 38.3625H119.257C126.789 38.3625 132.93 44.4968 132.93 52.0211V117.2C132.911 124.725 126.789 130.859 119.238 130.859ZM53.0051 41.717C47.3094 41.717 42.6713 46.3316 42.6713 52.0211V117.2C42.6713 122.89 47.3094 127.523 53.0051 127.523H119.257C124.952 127.523 129.59 122.89 129.59 117.2V52.0211C129.59 46.3316 124.952 41.6984 119.257 41.6984H53.0051V41.717Z" fill="black"/>
<path d="M41.0015 108.138C40.5748 108.138 40.1481 107.971 39.8142 107.656C39.1648 107.007 39.1648 105.951 39.8142 105.302L106.808 38.3811C107.457 37.7324 108.515 37.7324 109.164 38.3811C109.813 39.0297 109.813 40.0861 109.164 40.7347L42.1889 107.656C41.8549 107.99 41.4282 108.138 41.0015 108.138Z" fill="black"/>
<path d="M41.0015 89.4014C40.5748 89.4014 40.1481 89.2346 39.8142 88.9195C39.1648 88.2709 39.1648 87.2145 39.8142 86.5659L87.5501 38.8814C88.1995 38.2328 89.257 38.2328 89.9063 38.8814C90.5556 39.5301 90.5556 40.5864 89.9063 41.2351L42.1889 88.901C41.8549 89.2346 41.4282 89.4014 41.0015 89.4014Z" fill="black"/>
<path d="M41.0015 70.2016C40.5748 70.2016 40.1481 70.0348 39.8142 69.7198C39.1648 69.0711 39.1648 68.0148 39.8142 67.3661L68.3481 38.8629C68.9975 38.2143 70.055 38.2143 70.7043 38.8629C71.3537 39.5116 71.3537 40.5679 70.7043 41.2166L42.1889 69.7198C41.8549 70.0534 41.4282 70.2016 41.0015 70.2016Z" fill="black"/>
<path d="M58.9046 107.619C58.4779 107.619 58.0512 107.452 57.7172 107.137C57.0679 106.488 57.0679 105.432 57.7172 104.783L106.789 55.7647C107.438 55.116 108.496 55.116 109.145 55.7647C109.795 56.4133 109.795 57.4697 109.145 58.1183L60.092 107.137C59.758 107.471 59.3313 107.619 58.9046 107.619Z" fill="black"/>
<path d="M77.9583 107.619C77.5316 107.619 77.1049 107.452 76.7709 107.137C76.1216 106.489 76.1216 105.432 76.7709 104.784L106.808 74.7607C107.457 74.112 108.515 74.112 109.164 74.7607C109.813 75.4093 109.813 76.4657 109.164 77.1143L79.1271 107.137C78.8117 107.471 78.385 107.619 77.9583 107.619Z" fill="black"/>
</svg>
