<svg width="150" height="150" viewBox="0 0 150 150" fill="none" xmlns="http://www.w3.org/2000/svg">
<rect width="150" height="150" fill="none"/>
<path d="M84.3684 19.5789H17C14.2386 19.5789 12 21.8174 12 24.5789V133C12 135.761 14.2386 138 17 138H125.421C128.182 138 130.421 135.761 130.421 133V65.6315" stroke="black" stroke-width="3"/>
<path d="M50.3989 83.0889L46.1883 99.9312C45.7616 101.638 45.5483 102.491 45.7812 103.086C45.9845 103.605 46.3952 104.016 46.9142 104.219C47.509 104.452 48.3623 104.238 50.0689 103.812L66.9111 99.6012C68.5114 99.2011 69.3116 99.0011 70.0576 98.6794C70.7199 98.3938 71.3494 98.0374 71.935 97.6164C72.5947 97.1422 73.1778 96.559 74.3442 95.3927L74.3443 95.3926L127.132 42.6053C132.582 37.1551 132.582 28.3186 127.132 22.8684C121.681 17.4182 112.845 17.4183 107.395 22.8684L54.6074 75.6558C53.441 76.8222 52.8578 77.4054 52.3836 78.065C51.9626 78.6507 51.6062 79.2801 51.3207 79.9425C50.999 80.6885 50.7989 81.4886 50.3989 83.0889Z" stroke="black" stroke-width="3"/>
</svg>
