<svg width="151" height="158" viewBox="0 0 151 158" fill="none" xmlns="http://www.w3.org/2000/svg">
<path d="M63.5161 118.457C63.1348 118.457 62.7535 118.318 62.4416 118.041L53.811 109.96C53.4991 109.683 53.3258 109.285 53.3258 108.869C53.3084 108.454 53.4644 108.056 53.759 107.745L62.3896 98.763C62.9788 98.14 63.9666 98.1227 64.5905 98.7111C65.2144 99.2995 65.2318 100.286 64.6425 100.909L57.1038 108.766L64.5905 115.774C65.2144 116.363 65.2491 117.349 64.6599 117.972C64.3479 118.284 63.932 118.457 63.5161 118.457Z" fill="black"/>
<path d="M87.4841 118.457C87.0682 118.457 86.6522 118.284 86.3403 117.955C85.7511 117.332 85.7857 116.345 86.4096 115.757L93.8964 108.748L86.3576 100.892C85.7684 100.269 85.7857 99.2821 86.4096 98.6938C87.0335 98.1054 88.0213 98.1227 88.6106 98.7457L97.2411 107.727C97.5357 108.021 97.6917 108.437 97.6744 108.852C97.6571 109.267 97.4838 109.665 97.1891 109.942L88.5586 118.024C88.2466 118.318 87.8654 118.457 87.4841 118.457Z" fill="black"/>
<path d="M72.0773 125.933C71.9386 125.933 71.8 125.915 71.6613 125.881C70.8295 125.656 70.3442 124.791 70.5695 123.977L79.2521 92.1003C79.4774 91.2696 80.3439 90.7851 81.1584 91.0101C81.9903 91.235 82.4755 92.1003 82.2502 92.9137L73.585 124.773C73.3944 125.465 72.7532 125.933 72.0773 125.933Z" fill="black"/>
<path d="M75.6993 80.9209C58.3169 80.9209 44.1753 66.7996 44.1753 49.4421C44.1753 32.0846 58.3169 17.9632 75.6993 17.9632C93.0818 17.9632 107.223 32.0846 107.223 49.4421C107.223 66.7996 93.0818 80.9209 75.6993 80.9209ZM75.6993 21.0782C60.0326 21.0782 47.2948 33.7978 47.2948 49.4421C47.2948 65.0863 60.0326 77.8059 75.6993 77.8059C91.366 77.8059 104.104 65.0863 104.104 49.4421C104.104 33.7978 91.366 21.0782 75.6993 21.0782Z" fill="black"/>
<path d="M117.258 136.783C116.772 136.783 116.391 136.749 116.183 136.714H34.2795C32.0439 136.714 30.3455 136.074 29.2364 134.793C27.8846 133.253 27.9539 131.367 28.0059 130.83V96.8421C28.0059 96.669 27.9539 77.3733 51.0034 75.4351H63.9492C64.8157 75.4351 65.5089 76.1273 65.5089 76.9926C65.5089 77.8578 64.8157 78.5501 63.9492 78.5501H51.1247C31.16 80.246 31.108 96.1498 31.1254 96.8248V130.934C31.1254 131.003 31.1254 131.073 31.1081 131.159C31.1081 131.159 31.0041 132.128 31.6106 132.803C32.2172 133.495 33.3957 133.634 34.2795 133.634H116.287C116.356 133.634 116.443 133.634 116.512 133.651C117.032 133.72 118.696 133.789 119.459 133.132C119.632 132.976 119.874 132.699 119.874 132.007V98.0188C119.909 97.6208 120.325 91.2351 113.046 83.9494C113.046 83.9494 107.223 78.827 101.088 78.827H86.6867C85.8202 78.827 85.127 78.1347 85.127 77.2695C85.127 76.4042 85.8202 75.7119 86.6867 75.7119H101.088C108.436 75.7119 114.918 81.4401 115.195 81.6824C123.653 90.1275 123.029 97.8285 122.994 98.1573V131.972C122.994 133.789 122.179 134.862 121.504 135.451C120.221 136.576 118.436 136.783 117.258 136.783Z" fill="black"/>
</svg>
