<?xml version="1.0" encoding="utf-8"?>
<!-- Generator: Adobe Illustrator 24.1.2, SVG Export Plug-In . SVG Version: 6.00 Build 0)  -->
<svg version="1.1" id="Layer_1" xmlns="http://www.w3.org/2000/svg" xmlns:xlink="http://www.w3.org/1999/xlink" x="0px" y="0px"
	 viewBox="0 0 82.43 91.3" style="enable-background:new 0 0 82.43 91.3;" xml:space="preserve">
<g>
	<g>
		<path d="M34.51,73.55c-0.46,0-1.11-0.11-1.72-0.59c-0.94-0.74-1.42-2.07-1.42-3.95c0-0.06,0.01-0.12,0.02-0.19
			c0-0.01,0.42-2.78-3.69-7.04c-3.64-3.77-5.49-8.16-5.49-13.05c0-6.71,3.91-18.07,18.56-18.07c0.22,0.01,17.42,1.07,17.42,19.05
			c0,0.03,0,0.07-0.01,0.1c-0.04,0.37-1.1,9.11-7.08,13.38l0,0c0.01,0-2.5,2.31-2.57,5.21c0.14,0.56,0.5,2.51-0.53,3.87
			c-0.42,0.56-1.26,1.23-2.82,1.23H34.96C34.86,73.53,34.7,73.55,34.51,73.55z M33.16,69.08c0.01,1.21,0.26,2.08,0.71,2.45
			c0.36,0.29,0.78,0.21,0.8,0.2c0.06-0.01,0.14-0.02,0.2-0.02h10.3c1,0,1.29-0.38,1.39-0.51c0.52-0.68,0.32-1.99,0.2-2.44
			c-0.02-0.08-0.03-0.16-0.03-0.24c0-3.79,3.11-6.61,3.25-6.72c5.19-3.71,6.31-11.46,6.4-12.14c-0.03-16.23-15.02-17.16-15.66-17.2
			c-16.25,0-16.71,14.61-16.71,16.27c0,4.47,1.63,8.33,4.98,11.8C33.4,65.11,33.25,68.41,33.16,69.08z"/>
	</g>
	<g>
		<path d="M44.32,83.6h-8.29c-2.22,0-4.03-1.81-4.03-4.03v-0.44c0-2.22,1.81-4.03,4.03-4.03h8.29c2.22,0,4.03,1.81,4.03,4.03v0.44
			C48.35,81.79,46.54,83.6,44.32,83.6z M36.03,76.89c-1.23,0-2.23,1-2.23,2.23v0.44c0,1.23,1,2.23,2.23,2.23h8.29
			c1.23,0,2.23-1,2.23-2.23v-0.44c0-1.23-1-2.23-2.23-2.23H36.03z"/>
	</g>
	<g>
		<path d="M40.17,27.46c-0.5,0-0.9-0.4-0.9-0.9v-11.1c0-0.5,0.4-0.9,0.9-0.9s0.9,0.4,0.9,0.9v11.1
			C41.07,27.05,40.67,27.46,40.17,27.46z"/>
	</g>
	<g>
		<path d="M40.17,15.73c-2.17,0-3.94-1.77-3.94-3.94S38,7.84,40.17,7.84s3.94,1.77,3.94,3.94S42.35,15.73,40.17,15.73z M40.17,9.64
			c-1.18,0-2.14,0.96-2.14,2.14s0.96,2.14,2.14,2.14s2.14-0.96,2.14-2.14S41.36,9.64,40.17,9.64z"/>
	</g>
	<g>
		<g>
			<path d="M23.12,34.98c-0.23,0-0.46-0.09-0.64-0.26l-7.85-7.85c-0.35-0.35-0.35-0.92,0-1.27s0.92-0.35,1.27,0l7.85,7.85
				c0.35,0.35,0.35,0.92,0,1.27C23.59,34.89,23.36,34.98,23.12,34.98z"/>
		</g>
		<g>
			<path d="M13.21,27.46c-2.17,0-3.94-1.77-3.94-3.94s1.77-3.94,3.94-3.94s3.94,1.77,3.94,3.94S15.39,27.46,13.21,27.46z
				 M13.21,21.37c-1.18,0-2.14,0.96-2.14,2.14s0.96,2.14,2.14,2.14s2.14-0.96,2.14-2.14S14.4,21.37,13.21,21.37z"/>
		</g>
	</g>
	<g>
		<g>
			<path d="M57.28,34.98c-0.23,0-0.46-0.09-0.64-0.26c-0.35-0.35-0.35-0.92,0-1.27l7.85-7.85c0.35-0.35,0.92-0.35,1.27,0
				s0.35,0.92,0,1.27l-7.85,7.85C57.74,34.89,57.51,34.98,57.28,34.98z"/>
		</g>
		<g>
			<path d="M67.14,27.46c-2.17,0-3.94-1.77-3.94-3.94s1.77-3.94,3.94-3.94s3.94,1.77,3.94,3.94S69.31,27.46,67.14,27.46z
				 M67.14,21.37c-1.18,0-2.14,0.96-2.14,2.14s0.96,2.14,2.14,2.14s2.14-0.96,2.14-2.14S68.32,21.37,67.14,21.37z"/>
		</g>
	</g>
</g>
</svg>
