<svg width="148" height="141" viewBox="0 0 148 141" fill="none" xmlns="http://www.w3.org/2000/svg">
<path d="M75.6469 85.9008C67.5721 85.9008 60.9841 79.3054 60.9841 71.2214C60.9841 63.1374 67.5492 56.542 75.6469 56.542C83.7446 56.542 90.3096 63.1145 90.3096 71.2214C90.3096 79.3283 83.7217 85.9008 75.6469 85.9008ZM75.6469 60.1145C69.5164 60.1145 64.5297 65.1069 64.5297 71.2443C64.5297 77.3817 69.5164 82.3741 75.6469 82.3741C81.7773 82.3741 86.764 77.3817 86.764 71.2443C86.764 65.1069 81.7773 60.1145 75.6469 60.1145Z" fill="black"/>
<path d="M75.647 110.977C53.7558 110.977 35.9592 93.1374 35.9592 71.2443C35.9592 49.3512 53.7787 31.5115 75.647 31.5115C90.996 31.5115 105.11 40.5115 111.629 54.4351L108.427 55.9466C102.502 43.2596 89.6464 35.0611 75.647 35.0611C55.7231 35.0611 39.5048 51.2977 39.5048 71.2443C39.5048 91.1909 55.7231 107.428 75.647 107.428C95.571 107.428 111.789 91.1909 111.789 71.2443H115.335C115.335 93.1374 97.5382 110.977 75.647 110.977Z" fill="black"/>
<path d="M16.6987 71.2213C16.6987 38.6793 43.142 12.2061 75.6471 12.2061C98.3847 12.2061 119.338 25.5343 129.037 46.145L125.834 47.6564C116.73 28.2824 97.0351 15.7557 75.6471 15.7557C45.0864 15.7557 20.2443 40.6488 20.2443 71.2213C20.2443 101.794 45.1092 126.71 75.67 126.71C106.231 126.71 131.073 101.817 131.073 71.2213H134.618C134.618 103.763 108.175 130.237 75.67 130.237C43.1649 130.237 16.6987 103.786 16.6987 71.2213Z" fill="black"/>
<path d="M126.68 45.2819L86.6353 64.3217L88.1563 67.528L128.201 48.4883L126.68 45.2819Z" fill="black"/>
</svg>
