<svg width="150" height="150" viewBox="0 0 150 150" fill="none" xmlns="http://www.w3.org/2000/svg">
<rect width="150" height="150" fill="white"/>
<path d="M120 57C120 73.6657 110.942 88.2197 97.4661 96H52.5339C39.0584 88.2197 30 73.6657 30 57C30 32.1472 50.1472 12 75 12C99.8528 12 120 32.1472 120 57Z" stroke="black" stroke-width="6"/>
<path d="M53.7806 58.1261C53.7806 58.1261 53.7806 58.1261 53.7807 58.126L53.7806 58.1261ZM54.7912 57.8003C54.6148 57.5063 54.4629 57.2375 54.3343 57C54.4629 56.7625 54.6148 56.4937 54.7912 56.1997C55.5372 54.9564 56.705 53.2877 58.3713 51.6213C61.6668 48.3258 66.9365 45 75 45C83.0635 45 88.3332 48.3258 91.6287 51.6213C93.295 53.2877 94.4628 54.9564 95.2088 56.1997C95.3852 56.4937 95.5371 56.7625 95.6657 57C95.5371 57.2375 95.3852 57.5063 95.2088 57.8003C94.4628 59.0436 93.295 60.7123 91.6287 62.3787C88.3332 65.6742 83.0635 69 75 69C66.9365 69 61.6668 65.6742 58.3713 62.3787C56.705 60.7123 55.5372 59.0436 54.7912 57.8003Z" stroke="black" stroke-width="6"/>
<circle cx="75" cy="57" r="3" stroke="black" stroke-width="6"/>
<path d="M54 96H96V129C96 133.971 91.9706 138 87 138H63C58.0294 138 54 133.971 54 129V96Z" fill="white" stroke="black" stroke-width="6"/>
</svg>
